G75*
%MOIN*%
%OFA0B0*%
%FSLAX24Y24*%
%IPPOS*%
%LPD*%
%AMOC8*
5,1,8,0,0,1.08239X$1,22.5*
%
%ADD10C,0.0000*%
%ADD11C,0.0070*%
%ADD12C,0.0060*%
%ADD13C,0.0080*%
%ADD14C,0.0138*%
%ADD15R,0.0300X0.0340*%
%ADD16R,0.8000X0.1000*%
%ADD17C,0.0050*%
%ADD18R,0.1000X0.2500*%
%ADD19R,0.0620X0.0118*%
%ADD20C,0.0100*%
D10*
X000660Y001160D02*
X028219Y001160D01*
X028219Y026751D01*
X000660Y026751D01*
X000660Y001160D01*
X003445Y011677D02*
X003447Y011716D01*
X003453Y011755D01*
X003463Y011793D01*
X003476Y011830D01*
X003493Y011865D01*
X003513Y011899D01*
X003537Y011930D01*
X003564Y011959D01*
X003593Y011985D01*
X003625Y012008D01*
X003659Y012028D01*
X003695Y012044D01*
X003732Y012056D01*
X003771Y012065D01*
X003810Y012070D01*
X003849Y012071D01*
X003888Y012068D01*
X003927Y012061D01*
X003964Y012050D01*
X004001Y012036D01*
X004036Y012018D01*
X004069Y011997D01*
X004100Y011972D01*
X004128Y011945D01*
X004153Y011915D01*
X004175Y011882D01*
X004194Y011848D01*
X004209Y011812D01*
X004221Y011774D01*
X004229Y011736D01*
X004233Y011697D01*
X004233Y011657D01*
X004229Y011618D01*
X004221Y011580D01*
X004209Y011542D01*
X004194Y011506D01*
X004175Y011472D01*
X004153Y011439D01*
X004128Y011409D01*
X004100Y011382D01*
X004069Y011357D01*
X004036Y011336D01*
X004001Y011318D01*
X003964Y011304D01*
X003927Y011293D01*
X003888Y011286D01*
X003849Y011283D01*
X003810Y011284D01*
X003771Y011289D01*
X003732Y011298D01*
X003695Y011310D01*
X003659Y011326D01*
X003625Y011346D01*
X003593Y011369D01*
X003564Y011395D01*
X003537Y011424D01*
X003513Y011455D01*
X003493Y011489D01*
X003476Y011524D01*
X003463Y011561D01*
X003453Y011599D01*
X003447Y011638D01*
X003445Y011677D01*
X011645Y011677D02*
X011647Y011716D01*
X011653Y011755D01*
X011663Y011793D01*
X011676Y011830D01*
X011693Y011865D01*
X011713Y011899D01*
X011737Y011930D01*
X011764Y011959D01*
X011793Y011985D01*
X011825Y012008D01*
X011859Y012028D01*
X011895Y012044D01*
X011932Y012056D01*
X011971Y012065D01*
X012010Y012070D01*
X012049Y012071D01*
X012088Y012068D01*
X012127Y012061D01*
X012164Y012050D01*
X012201Y012036D01*
X012236Y012018D01*
X012269Y011997D01*
X012300Y011972D01*
X012328Y011945D01*
X012353Y011915D01*
X012375Y011882D01*
X012394Y011848D01*
X012409Y011812D01*
X012421Y011774D01*
X012429Y011736D01*
X012433Y011697D01*
X012433Y011657D01*
X012429Y011618D01*
X012421Y011580D01*
X012409Y011542D01*
X012394Y011506D01*
X012375Y011472D01*
X012353Y011439D01*
X012328Y011409D01*
X012300Y011382D01*
X012269Y011357D01*
X012236Y011336D01*
X012201Y011318D01*
X012164Y011304D01*
X012127Y011293D01*
X012088Y011286D01*
X012049Y011283D01*
X012010Y011284D01*
X011971Y011289D01*
X011932Y011298D01*
X011895Y011310D01*
X011859Y011326D01*
X011825Y011346D01*
X011793Y011369D01*
X011764Y011395D01*
X011737Y011424D01*
X011713Y011455D01*
X011693Y011489D01*
X011676Y011524D01*
X011663Y011561D01*
X011653Y011599D01*
X011647Y011638D01*
X011645Y011677D01*
X011645Y020777D02*
X011647Y020816D01*
X011653Y020855D01*
X011663Y020893D01*
X011676Y020930D01*
X011693Y020965D01*
X011713Y020999D01*
X011737Y021030D01*
X011764Y021059D01*
X011793Y021085D01*
X011825Y021108D01*
X011859Y021128D01*
X011895Y021144D01*
X011932Y021156D01*
X011971Y021165D01*
X012010Y021170D01*
X012049Y021171D01*
X012088Y021168D01*
X012127Y021161D01*
X012164Y021150D01*
X012201Y021136D01*
X012236Y021118D01*
X012269Y021097D01*
X012300Y021072D01*
X012328Y021045D01*
X012353Y021015D01*
X012375Y020982D01*
X012394Y020948D01*
X012409Y020912D01*
X012421Y020874D01*
X012429Y020836D01*
X012433Y020797D01*
X012433Y020757D01*
X012429Y020718D01*
X012421Y020680D01*
X012409Y020642D01*
X012394Y020606D01*
X012375Y020572D01*
X012353Y020539D01*
X012328Y020509D01*
X012300Y020482D01*
X012269Y020457D01*
X012236Y020436D01*
X012201Y020418D01*
X012164Y020404D01*
X012127Y020393D01*
X012088Y020386D01*
X012049Y020383D01*
X012010Y020384D01*
X011971Y020389D01*
X011932Y020398D01*
X011895Y020410D01*
X011859Y020426D01*
X011825Y020446D01*
X011793Y020469D01*
X011764Y020495D01*
X011737Y020524D01*
X011713Y020555D01*
X011693Y020589D01*
X011676Y020624D01*
X011663Y020661D01*
X011653Y020699D01*
X011647Y020738D01*
X011645Y020777D01*
X003445Y020777D02*
X003447Y020816D01*
X003453Y020855D01*
X003463Y020893D01*
X003476Y020930D01*
X003493Y020965D01*
X003513Y020999D01*
X003537Y021030D01*
X003564Y021059D01*
X003593Y021085D01*
X003625Y021108D01*
X003659Y021128D01*
X003695Y021144D01*
X003732Y021156D01*
X003771Y021165D01*
X003810Y021170D01*
X003849Y021171D01*
X003888Y021168D01*
X003927Y021161D01*
X003964Y021150D01*
X004001Y021136D01*
X004036Y021118D01*
X004069Y021097D01*
X004100Y021072D01*
X004128Y021045D01*
X004153Y021015D01*
X004175Y020982D01*
X004194Y020948D01*
X004209Y020912D01*
X004221Y020874D01*
X004229Y020836D01*
X004233Y020797D01*
X004233Y020757D01*
X004229Y020718D01*
X004221Y020680D01*
X004209Y020642D01*
X004194Y020606D01*
X004175Y020572D01*
X004153Y020539D01*
X004128Y020509D01*
X004100Y020482D01*
X004069Y020457D01*
X004036Y020436D01*
X004001Y020418D01*
X003964Y020404D01*
X003927Y020393D01*
X003888Y020386D01*
X003849Y020383D01*
X003810Y020384D01*
X003771Y020389D01*
X003732Y020398D01*
X003695Y020410D01*
X003659Y020426D01*
X003625Y020446D01*
X003593Y020469D01*
X003564Y020495D01*
X003537Y020524D01*
X003513Y020555D01*
X003493Y020589D01*
X003476Y020624D01*
X003463Y020661D01*
X003453Y020699D01*
X003447Y020738D01*
X003445Y020777D01*
D11*
X003372Y020661D02*
X003372Y021055D01*
X003372Y020661D02*
X003175Y020464D01*
X002978Y020661D01*
X002978Y021055D01*
X002764Y020957D02*
X002764Y020858D01*
X002665Y020760D01*
X002764Y020661D01*
X002764Y020563D01*
X002665Y020464D01*
X002469Y020464D01*
X002370Y020563D01*
X002567Y020760D02*
X002665Y020760D01*
X002764Y020957D02*
X002665Y021055D01*
X002469Y021055D01*
X002370Y020957D01*
X002469Y021454D02*
X002370Y021553D01*
X002469Y021454D02*
X002665Y021454D01*
X002764Y021553D01*
X002764Y021651D01*
X002665Y021750D01*
X002469Y021750D01*
X002370Y021848D01*
X002370Y021947D01*
X002469Y022045D01*
X002665Y022045D01*
X002764Y021947D01*
X002978Y021947D02*
X002978Y021553D01*
X003076Y021454D01*
X003273Y021454D01*
X003372Y021553D01*
X003586Y021454D02*
X003979Y021454D01*
X003586Y021454D02*
X003586Y022045D01*
X003372Y021947D02*
X003273Y022045D01*
X003076Y022045D01*
X002978Y021947D01*
X002978Y022444D02*
X003273Y022444D01*
X003372Y022543D01*
X003372Y022937D01*
X003273Y023035D01*
X002978Y023035D01*
X002978Y022444D01*
X002764Y022543D02*
X002764Y022641D01*
X002665Y022740D01*
X002469Y022740D01*
X002370Y022838D01*
X002370Y022937D01*
X002469Y023035D01*
X002665Y023035D01*
X002764Y022937D01*
X002764Y022543D02*
X002665Y022444D01*
X002469Y022444D01*
X002370Y022543D01*
X003586Y022444D02*
X003586Y022838D01*
X003782Y023035D01*
X003979Y022838D01*
X003979Y022444D01*
X003979Y022740D02*
X003586Y022740D01*
X003586Y020065D02*
X003881Y020065D01*
X003979Y019967D01*
X003979Y019573D01*
X003881Y019474D01*
X003586Y019474D01*
X003586Y020065D01*
X003372Y020065D02*
X003372Y019474D01*
X002978Y020065D01*
X002978Y019474D01*
X002764Y019573D02*
X002764Y019770D01*
X002567Y019770D01*
X002370Y019967D02*
X002370Y019573D01*
X002469Y019474D01*
X002665Y019474D01*
X002764Y019573D01*
X002764Y019967D02*
X002665Y020065D01*
X002469Y020065D01*
X002370Y019967D01*
X008169Y011118D02*
X008563Y010527D01*
X008777Y010527D02*
X009072Y010527D01*
X009170Y010626D01*
X009170Y011019D01*
X009072Y011118D01*
X008777Y011118D01*
X008777Y010527D01*
X008774Y010128D02*
X008675Y010029D01*
X008774Y010128D02*
X008971Y010128D01*
X009069Y010029D01*
X009069Y009931D01*
X008675Y009537D01*
X009069Y009537D01*
X009283Y009537D02*
X009677Y009931D01*
X009677Y010029D01*
X009578Y010128D01*
X009382Y010128D01*
X009283Y010029D01*
X009283Y009537D02*
X009677Y009537D01*
X009891Y009833D02*
X010285Y009833D01*
X010499Y009931D02*
X010499Y010029D01*
X010597Y010128D01*
X010794Y010128D01*
X010892Y010029D01*
X010892Y009931D01*
X010794Y009833D01*
X010597Y009833D01*
X010499Y009931D01*
X010597Y009833D02*
X010499Y009734D01*
X010499Y009636D01*
X010597Y009537D01*
X010794Y009537D01*
X010892Y009636D01*
X010892Y009734D01*
X010794Y009833D01*
X010186Y010128D02*
X010186Y009537D01*
X009891Y009833D02*
X010186Y010128D01*
X010091Y010527D02*
X009992Y010626D01*
X010091Y010527D02*
X010287Y010527D01*
X010386Y010626D01*
X010386Y010724D01*
X010287Y010823D01*
X010091Y010823D01*
X009992Y010921D01*
X009992Y011019D01*
X010091Y011118D01*
X010287Y011118D01*
X010386Y011019D01*
X010600Y011118D02*
X010797Y011118D01*
X010698Y011118D02*
X010698Y010527D01*
X010600Y010527D02*
X010797Y010527D01*
X011005Y010626D02*
X011103Y010527D01*
X011300Y010527D01*
X011399Y010626D01*
X011399Y010823D01*
X011202Y010823D01*
X011399Y011019D02*
X011300Y011118D01*
X011103Y011118D01*
X011005Y011019D01*
X011005Y010626D01*
X009778Y010724D02*
X009384Y010724D01*
X009384Y010626D02*
X009384Y010823D01*
X009483Y010921D01*
X009680Y010921D01*
X009778Y010823D01*
X009778Y010724D01*
X009680Y010527D02*
X009483Y010527D01*
X009384Y010626D01*
X008563Y011118D02*
X008169Y010527D01*
D12*
X008365Y007566D02*
X008367Y007639D01*
X008373Y007712D01*
X008383Y007784D01*
X008397Y007856D01*
X008414Y007927D01*
X008436Y007997D01*
X008461Y008066D01*
X008490Y008133D01*
X008522Y008198D01*
X008558Y008262D01*
X008598Y008324D01*
X008640Y008383D01*
X008686Y008440D01*
X008735Y008494D01*
X008787Y008546D01*
X008841Y008595D01*
X008898Y008641D01*
X008957Y008683D01*
X009019Y008723D01*
X009083Y008759D01*
X009148Y008791D01*
X009215Y008820D01*
X009284Y008845D01*
X009354Y008867D01*
X009425Y008884D01*
X009497Y008898D01*
X009569Y008908D01*
X009642Y008914D01*
X009715Y008916D01*
X009788Y008914D01*
X009861Y008908D01*
X009933Y008898D01*
X010005Y008884D01*
X010076Y008867D01*
X010146Y008845D01*
X010215Y008820D01*
X010282Y008791D01*
X010347Y008759D01*
X010411Y008723D01*
X010473Y008683D01*
X010532Y008641D01*
X010589Y008595D01*
X010643Y008546D01*
X010695Y008494D01*
X010744Y008440D01*
X010790Y008383D01*
X010832Y008324D01*
X010872Y008262D01*
X010908Y008198D01*
X010940Y008133D01*
X010969Y008066D01*
X010994Y007997D01*
X011016Y007927D01*
X011033Y007856D01*
X011047Y007784D01*
X011057Y007712D01*
X011063Y007639D01*
X011065Y007566D01*
X011063Y007493D01*
X011057Y007420D01*
X011047Y007348D01*
X011033Y007276D01*
X011016Y007205D01*
X010994Y007135D01*
X010969Y007066D01*
X010940Y006999D01*
X010908Y006934D01*
X010872Y006870D01*
X010832Y006808D01*
X010790Y006749D01*
X010744Y006692D01*
X010695Y006638D01*
X010643Y006586D01*
X010589Y006537D01*
X010532Y006491D01*
X010473Y006449D01*
X010411Y006409D01*
X010347Y006373D01*
X010282Y006341D01*
X010215Y006312D01*
X010146Y006287D01*
X010076Y006265D01*
X010005Y006248D01*
X009933Y006234D01*
X009861Y006224D01*
X009788Y006218D01*
X009715Y006216D01*
X009642Y006218D01*
X009569Y006224D01*
X009497Y006234D01*
X009425Y006248D01*
X009354Y006265D01*
X009284Y006287D01*
X009215Y006312D01*
X009148Y006341D01*
X009083Y006373D01*
X009019Y006409D01*
X008957Y006449D01*
X008898Y006491D01*
X008841Y006537D01*
X008787Y006586D01*
X008735Y006638D01*
X008686Y006692D01*
X008640Y006749D01*
X008598Y006808D01*
X008558Y006870D01*
X008522Y006934D01*
X008490Y006999D01*
X008461Y007066D01*
X008436Y007135D01*
X008414Y007205D01*
X008397Y007276D01*
X008383Y007348D01*
X008373Y007420D01*
X008367Y007493D01*
X008365Y007566D01*
X019377Y007636D02*
X019377Y007236D01*
X021199Y007236D01*
X021352Y007236D02*
X023175Y007236D01*
X023308Y007236D02*
X025130Y007236D01*
X025254Y007236D02*
X027076Y007236D01*
X027076Y007636D02*
X027076Y005132D01*
X025254Y005132D01*
X025254Y007236D01*
X025254Y007636D01*
X027076Y007636D01*
X025130Y007636D02*
X025130Y005132D01*
X023308Y005132D01*
X023308Y007236D01*
X023308Y007636D01*
X025130Y007636D01*
X023175Y007636D02*
X023175Y005132D01*
X021352Y005132D01*
X021352Y007236D01*
X021352Y007636D01*
X023175Y007636D01*
X021199Y007636D02*
X021199Y005132D01*
X019377Y005132D01*
X019377Y007236D01*
X019377Y007636D02*
X021199Y007636D01*
X025294Y022814D02*
X025296Y022887D01*
X025302Y022960D01*
X025312Y023032D01*
X025326Y023104D01*
X025343Y023175D01*
X025365Y023245D01*
X025390Y023314D01*
X025419Y023381D01*
X025451Y023446D01*
X025487Y023510D01*
X025527Y023572D01*
X025569Y023631D01*
X025615Y023688D01*
X025664Y023742D01*
X025716Y023794D01*
X025770Y023843D01*
X025827Y023889D01*
X025886Y023931D01*
X025948Y023971D01*
X026012Y024007D01*
X026077Y024039D01*
X026144Y024068D01*
X026213Y024093D01*
X026283Y024115D01*
X026354Y024132D01*
X026426Y024146D01*
X026498Y024156D01*
X026571Y024162D01*
X026644Y024164D01*
X026717Y024162D01*
X026790Y024156D01*
X026862Y024146D01*
X026934Y024132D01*
X027005Y024115D01*
X027075Y024093D01*
X027144Y024068D01*
X027211Y024039D01*
X027276Y024007D01*
X027340Y023971D01*
X027402Y023931D01*
X027461Y023889D01*
X027518Y023843D01*
X027572Y023794D01*
X027624Y023742D01*
X027673Y023688D01*
X027719Y023631D01*
X027761Y023572D01*
X027801Y023510D01*
X027837Y023446D01*
X027869Y023381D01*
X027898Y023314D01*
X027923Y023245D01*
X027945Y023175D01*
X027962Y023104D01*
X027976Y023032D01*
X027986Y022960D01*
X027992Y022887D01*
X027994Y022814D01*
X027992Y022741D01*
X027986Y022668D01*
X027976Y022596D01*
X027962Y022524D01*
X027945Y022453D01*
X027923Y022383D01*
X027898Y022314D01*
X027869Y022247D01*
X027837Y022182D01*
X027801Y022118D01*
X027761Y022056D01*
X027719Y021997D01*
X027673Y021940D01*
X027624Y021886D01*
X027572Y021834D01*
X027518Y021785D01*
X027461Y021739D01*
X027402Y021697D01*
X027340Y021657D01*
X027276Y021621D01*
X027211Y021589D01*
X027144Y021560D01*
X027075Y021535D01*
X027005Y021513D01*
X026934Y021496D01*
X026862Y021482D01*
X026790Y021472D01*
X026717Y021466D01*
X026644Y021464D01*
X026571Y021466D01*
X026498Y021472D01*
X026426Y021482D01*
X026354Y021496D01*
X026283Y021513D01*
X026213Y021535D01*
X026144Y021560D01*
X026077Y021589D01*
X026012Y021621D01*
X025948Y021657D01*
X025886Y021697D01*
X025827Y021739D01*
X025770Y021785D01*
X025716Y021834D01*
X025664Y021886D01*
X025615Y021940D01*
X025569Y021997D01*
X025527Y022056D01*
X025487Y022118D01*
X025451Y022182D01*
X025419Y022247D01*
X025390Y022314D01*
X025365Y022383D01*
X025343Y022453D01*
X025326Y022524D01*
X025312Y022596D01*
X025302Y022668D01*
X025296Y022741D01*
X025294Y022814D01*
X002160Y022989D02*
X002160Y022489D01*
X001910Y022239D01*
X002160Y021989D01*
X002160Y021489D01*
X001910Y021239D01*
X002160Y020989D01*
X002160Y020489D01*
X001910Y020239D01*
X002160Y019989D01*
X002160Y019489D01*
X001910Y019239D01*
X001410Y019239D01*
X001160Y019489D01*
X001160Y019989D01*
X001410Y020239D01*
X001160Y020489D01*
X001160Y020989D01*
X001410Y021239D01*
X001160Y021489D01*
X001160Y021989D01*
X001410Y022239D01*
X001160Y022489D01*
X001160Y022989D01*
X001410Y023239D01*
X001910Y023239D01*
X002160Y022989D01*
X000885Y024979D02*
X000887Y025052D01*
X000893Y025125D01*
X000903Y025197D01*
X000917Y025269D01*
X000934Y025340D01*
X000956Y025410D01*
X000981Y025479D01*
X001010Y025546D01*
X001042Y025611D01*
X001078Y025675D01*
X001118Y025737D01*
X001160Y025796D01*
X001206Y025853D01*
X001255Y025907D01*
X001307Y025959D01*
X001361Y026008D01*
X001418Y026054D01*
X001477Y026096D01*
X001539Y026136D01*
X001603Y026172D01*
X001668Y026204D01*
X001735Y026233D01*
X001804Y026258D01*
X001874Y026280D01*
X001945Y026297D01*
X002017Y026311D01*
X002089Y026321D01*
X002162Y026327D01*
X002235Y026329D01*
X002308Y026327D01*
X002381Y026321D01*
X002453Y026311D01*
X002525Y026297D01*
X002596Y026280D01*
X002666Y026258D01*
X002735Y026233D01*
X002802Y026204D01*
X002867Y026172D01*
X002931Y026136D01*
X002993Y026096D01*
X003052Y026054D01*
X003109Y026008D01*
X003163Y025959D01*
X003215Y025907D01*
X003264Y025853D01*
X003310Y025796D01*
X003352Y025737D01*
X003392Y025675D01*
X003428Y025611D01*
X003460Y025546D01*
X003489Y025479D01*
X003514Y025410D01*
X003536Y025340D01*
X003553Y025269D01*
X003567Y025197D01*
X003577Y025125D01*
X003583Y025052D01*
X003585Y024979D01*
X003583Y024906D01*
X003577Y024833D01*
X003567Y024761D01*
X003553Y024689D01*
X003536Y024618D01*
X003514Y024548D01*
X003489Y024479D01*
X003460Y024412D01*
X003428Y024347D01*
X003392Y024283D01*
X003352Y024221D01*
X003310Y024162D01*
X003264Y024105D01*
X003215Y024051D01*
X003163Y023999D01*
X003109Y023950D01*
X003052Y023904D01*
X002993Y023862D01*
X002931Y023822D01*
X002867Y023786D01*
X002802Y023754D01*
X002735Y023725D01*
X002666Y023700D01*
X002596Y023678D01*
X002525Y023661D01*
X002453Y023647D01*
X002381Y023637D01*
X002308Y023631D01*
X002235Y023629D01*
X002162Y023631D01*
X002089Y023637D01*
X002017Y023647D01*
X001945Y023661D01*
X001874Y023678D01*
X001804Y023700D01*
X001735Y023725D01*
X001668Y023754D01*
X001603Y023786D01*
X001539Y023822D01*
X001477Y023862D01*
X001418Y023904D01*
X001361Y023950D01*
X001307Y023999D01*
X001255Y024051D01*
X001206Y024105D01*
X001160Y024162D01*
X001118Y024221D01*
X001078Y024283D01*
X001042Y024347D01*
X001010Y024412D01*
X000981Y024479D01*
X000956Y024548D01*
X000934Y024618D01*
X000917Y024689D01*
X000903Y024761D01*
X000893Y024833D01*
X000887Y024906D01*
X000885Y024979D01*
D13*
X001605Y024979D02*
X001607Y025029D01*
X001613Y025079D01*
X001623Y025128D01*
X001637Y025176D01*
X001654Y025223D01*
X001675Y025268D01*
X001700Y025312D01*
X001728Y025353D01*
X001760Y025392D01*
X001794Y025429D01*
X001831Y025463D01*
X001871Y025493D01*
X001913Y025520D01*
X001957Y025544D01*
X002003Y025565D01*
X002050Y025581D01*
X002098Y025594D01*
X002148Y025603D01*
X002197Y025608D01*
X002248Y025609D01*
X002298Y025606D01*
X002347Y025599D01*
X002396Y025588D01*
X002444Y025573D01*
X002490Y025555D01*
X002535Y025533D01*
X002578Y025507D01*
X002619Y025478D01*
X002658Y025446D01*
X002694Y025411D01*
X002726Y025373D01*
X002756Y025333D01*
X002783Y025290D01*
X002806Y025246D01*
X002825Y025200D01*
X002841Y025152D01*
X002853Y025103D01*
X002861Y025054D01*
X002865Y025004D01*
X002865Y024954D01*
X002861Y024904D01*
X002853Y024855D01*
X002841Y024806D01*
X002825Y024758D01*
X002806Y024712D01*
X002783Y024668D01*
X002756Y024625D01*
X002726Y024585D01*
X002694Y024547D01*
X002658Y024512D01*
X002619Y024480D01*
X002578Y024451D01*
X002535Y024425D01*
X002490Y024403D01*
X002444Y024385D01*
X002396Y024370D01*
X002347Y024359D01*
X002298Y024352D01*
X002248Y024349D01*
X002197Y024350D01*
X002148Y024355D01*
X002098Y024364D01*
X002050Y024377D01*
X002003Y024393D01*
X001957Y024414D01*
X001913Y024438D01*
X001871Y024465D01*
X001831Y024495D01*
X001794Y024529D01*
X001760Y024566D01*
X001728Y024605D01*
X001700Y024646D01*
X001675Y024690D01*
X001654Y024735D01*
X001637Y024782D01*
X001623Y024830D01*
X001613Y024879D01*
X001607Y024929D01*
X001605Y024979D01*
X008298Y024042D02*
X008298Y023373D01*
X008928Y023373D02*
X008928Y024042D01*
X009674Y024042D02*
X009674Y023373D01*
X010304Y023373D02*
X010304Y024042D01*
X004109Y018022D02*
X001528Y018022D01*
X001528Y016622D01*
X004109Y016622D01*
X004109Y018022D01*
X004108Y015110D02*
X001748Y015109D01*
X004108Y015110D02*
X004108Y012529D01*
X001748Y012529D01*
X007627Y015384D02*
X007627Y017274D01*
X008926Y017274D01*
X008926Y015384D01*
X007627Y015384D01*
X008926Y015384D02*
X009123Y015384D01*
X009123Y017274D01*
X008926Y017274D01*
X009085Y007566D02*
X009087Y007616D01*
X009093Y007666D01*
X009103Y007715D01*
X009117Y007763D01*
X009134Y007810D01*
X009155Y007855D01*
X009180Y007899D01*
X009208Y007940D01*
X009240Y007979D01*
X009274Y008016D01*
X009311Y008050D01*
X009351Y008080D01*
X009393Y008107D01*
X009437Y008131D01*
X009483Y008152D01*
X009530Y008168D01*
X009578Y008181D01*
X009628Y008190D01*
X009677Y008195D01*
X009728Y008196D01*
X009778Y008193D01*
X009827Y008186D01*
X009876Y008175D01*
X009924Y008160D01*
X009970Y008142D01*
X010015Y008120D01*
X010058Y008094D01*
X010099Y008065D01*
X010138Y008033D01*
X010174Y007998D01*
X010206Y007960D01*
X010236Y007920D01*
X010263Y007877D01*
X010286Y007833D01*
X010305Y007787D01*
X010321Y007739D01*
X010333Y007690D01*
X010341Y007641D01*
X010345Y007591D01*
X010345Y007541D01*
X010341Y007491D01*
X010333Y007442D01*
X010321Y007393D01*
X010305Y007345D01*
X010286Y007299D01*
X010263Y007255D01*
X010236Y007212D01*
X010206Y007172D01*
X010174Y007134D01*
X010138Y007099D01*
X010099Y007067D01*
X010058Y007038D01*
X010015Y007012D01*
X009970Y006990D01*
X009924Y006972D01*
X009876Y006957D01*
X009827Y006946D01*
X009778Y006939D01*
X009728Y006936D01*
X009677Y006937D01*
X009628Y006942D01*
X009578Y006951D01*
X009530Y006964D01*
X009483Y006980D01*
X009437Y007001D01*
X009393Y007025D01*
X009351Y007052D01*
X009311Y007082D01*
X009274Y007116D01*
X009240Y007153D01*
X009208Y007192D01*
X009180Y007233D01*
X009155Y007277D01*
X009134Y007322D01*
X009117Y007369D01*
X009103Y007417D01*
X009093Y007466D01*
X009087Y007516D01*
X009085Y007566D01*
X026014Y022814D02*
X026016Y022864D01*
X026022Y022914D01*
X026032Y022963D01*
X026046Y023011D01*
X026063Y023058D01*
X026084Y023103D01*
X026109Y023147D01*
X026137Y023188D01*
X026169Y023227D01*
X026203Y023264D01*
X026240Y023298D01*
X026280Y023328D01*
X026322Y023355D01*
X026366Y023379D01*
X026412Y023400D01*
X026459Y023416D01*
X026507Y023429D01*
X026557Y023438D01*
X026606Y023443D01*
X026657Y023444D01*
X026707Y023441D01*
X026756Y023434D01*
X026805Y023423D01*
X026853Y023408D01*
X026899Y023390D01*
X026944Y023368D01*
X026987Y023342D01*
X027028Y023313D01*
X027067Y023281D01*
X027103Y023246D01*
X027135Y023208D01*
X027165Y023168D01*
X027192Y023125D01*
X027215Y023081D01*
X027234Y023035D01*
X027250Y022987D01*
X027262Y022938D01*
X027270Y022889D01*
X027274Y022839D01*
X027274Y022789D01*
X027270Y022739D01*
X027262Y022690D01*
X027250Y022641D01*
X027234Y022593D01*
X027215Y022547D01*
X027192Y022503D01*
X027165Y022460D01*
X027135Y022420D01*
X027103Y022382D01*
X027067Y022347D01*
X027028Y022315D01*
X026987Y022286D01*
X026944Y022260D01*
X026899Y022238D01*
X026853Y022220D01*
X026805Y022205D01*
X026756Y022194D01*
X026707Y022187D01*
X026657Y022184D01*
X026606Y022185D01*
X026557Y022190D01*
X026507Y022199D01*
X026459Y022212D01*
X026412Y022228D01*
X026366Y022249D01*
X026322Y022273D01*
X026280Y022300D01*
X026240Y022330D01*
X026203Y022364D01*
X026169Y022401D01*
X026137Y022440D01*
X026109Y022481D01*
X026084Y022525D01*
X026063Y022570D01*
X026046Y022617D01*
X026032Y022665D01*
X026022Y022714D01*
X026016Y022764D01*
X026014Y022814D01*
D14*
X010252Y015428D03*
D15*
X004298Y013819D03*
D16*
X021219Y011652D03*
X021219Y020652D03*
D17*
X026392Y022384D02*
X015026Y022384D01*
X014751Y021235D01*
X012191Y021235D01*
X012191Y010180D01*
X026533Y010180D01*
X027506Y011153D01*
X027506Y021270D01*
X026392Y022384D01*
X014168Y021971D02*
X014168Y021262D01*
X014168Y021223D02*
X012632Y021223D01*
X012632Y021971D01*
X014168Y021971D01*
D18*
X012660Y015910D03*
D19*
X009994Y024022D03*
X008618Y024022D03*
D20*
X004912Y007744D02*
X001723Y007744D01*
X001723Y005303D01*
X004912Y005303D01*
X004912Y007744D01*
M02*
