%
M48
M72
T01C0.0197
T02C0.0236
T03C0.0276
T04C0.0315
T05C0.0320
T06C0.0354
T07C0.0394
T08C0.0400
T09C0.0520
T10C0.0787
T11C0.1181
%
T01
X3292Y3217
X4316Y7172
X5123Y8783
X5623Y8783
X6123Y8783
X6623Y8783
X6623Y9283
X6623Y9783
X6123Y9783
X5623Y9783
X5623Y9283
X6123Y9283
X5123Y9283
X8618Y6104
X9415Y3222
X11415Y3222
X13387Y3230
X15387Y3230
X17387Y3230
X19387Y3230
X21387Y3230
X23387Y3230
X25387Y3230
X27387Y3230
X15623Y13283
X14623Y13283
X13947Y11623
X14623Y11283
X14623Y10783
X12623Y13283
X12123Y13283
X12089Y14311
X12589Y14311
X9660Y18660
X9470Y19186
X6954Y17807
X7882Y22085
X7889Y23120
X6511Y23658
X4863Y22715
X9295Y22574
X17545Y24489
X24703Y20021
X21160Y14660
T02
X24499Y17585
T03
X14164Y8092
X14164Y7592
X14164Y7092
X14664Y7092
X14664Y7592
X13664Y7592
X13664Y7092
X14583Y4832
X15083Y4832
X17664Y6592
X17664Y7092
X19420Y6817
X19920Y6817
X19920Y6317
X20420Y6317
X20920Y6317
X21420Y6317
X21920Y6317
X22420Y6317
X22920Y6317
X23420Y6317
X23920Y6317
X24420Y6317
X24920Y6317
X25420Y6317
X25920Y6317
X26420Y6317
X26920Y6317
X26920Y6817
X26420Y6817
X25920Y6817
X25420Y6817
X24920Y6817
X24420Y6817
X23920Y6817
X23420Y6817
X22920Y6817
X22420Y6817
X21920Y6817
X21420Y6817
X20920Y6817
X20420Y6817
X3908Y6567
X3908Y6067
X3908Y5567
X3408Y5567
X2908Y5567
X2408Y5567
X2408Y6067
X2908Y6067
X3408Y6067
X3408Y6567
X2908Y6567
X2408Y6567
X2113Y12398
X1613Y12398
X3849Y12900
X3849Y13400
X3849Y13900
X3849Y14400
X3849Y14900
X2113Y15233
X1613Y15233
X1716Y16900
X1716Y17400
X1716Y17900
X3216Y17400
X3216Y16900
X3716Y16900
X3716Y17400
T04
X6715Y7118
X6715Y6118
X6715Y5118
X6715Y4118
X17719Y20652
X18719Y20652
X19719Y20652
X20719Y20652
X24719Y20652
T05
X15316Y18187
X14316Y18187
X12845Y9140
X11845Y9140
X15806Y9140
X16806Y9140
X19817Y9194
X20817Y9194
X21760Y9140
X22760Y9140
X23719Y9140
X24719Y9140
X25663Y9140
X26663Y9140
X8198Y2778
X6198Y2778
T06
X15719Y10652
X15719Y11652
X16719Y11652
X16719Y10652
X17719Y10652
X18719Y10652
X18719Y11652
X17719Y11652
X19719Y11652
X19719Y10652
X20719Y10652
X20719Y11652
X21719Y11652
X21719Y10652
X22719Y10652
X23719Y10652
X23719Y11652
X22719Y11652
X24719Y11652
X24719Y10652
X23719Y20652
X22719Y20652
X21719Y20652
X21719Y21652
X22719Y21652
X23719Y21652
X24719Y21652
X20719Y21652
X19719Y21652
X18719Y21652
X17719Y21652
X16719Y21652
X16719Y20652
X15719Y20652
X15719Y21652
X4307Y18565
T07
X6439Y21227
X7439Y21227
X8439Y21227
X9439Y21227
X9992Y25282
X11354Y25282
X12732Y25282
X14110Y25282
X15498Y25282
X16876Y25282
X18254Y25282
X19631Y25282
X21009Y25282
X22387Y25282
X23762Y25282
X25140Y25282
X26518Y25282
X8614Y25282
X7223Y25283
X5845Y25283
X4467Y25283
T08
X1660Y22739
X1660Y21739
X1660Y20739
X1660Y19739
T09
X2307Y3116
X4277Y3116
X10431Y3142
X12401Y3142
X14371Y3142
X16341Y3142
X18311Y3142
X20281Y3142
X22251Y3142
X24221Y3142
X26191Y3142
T10
X12039Y11677
X3839Y11677
X3839Y20777
X12039Y20777
T11
X2235Y24979
X9715Y7566
X26644Y22814
M30
