G75*
%MOIN*%
%OFA0B0*%
%FSLAX24Y24*%
%IPPOS*%
%LPD*%
%AMOC8*
5,1,8,0,0,1.08239X$1,22.5*
%
%ADD10C,0.0858*%
%ADD11C,0.2380*%
%ADD12R,0.0940X0.0940*%
%ADD13C,0.0071*%
%ADD14C,0.0087*%
%ADD15OC8,0.0616*%
%ADD16R,0.0616X0.0616*%
%ADD17C,0.0616*%
%ADD18OC8,0.0572*%
%ADD19C,0.0653*%
%ADD20C,0.0088*%
%ADD21C,0.7088*%
%ADD22C,0.0213*%
%ADD23R,0.0653X0.0653*%
%ADD24C,0.0653*%
%ADD25C,0.0866*%
%ADD26OC8,0.0693*%
%ADD27C,0.0660*%
%ADD28C,0.0091*%
%ADD29C,0.0610*%
D10*
X002307Y002921D02*
X002307Y003311D01*
X004277Y003311D02*
X004277Y002921D01*
X010431Y002947D02*
X010431Y003337D01*
X012401Y003337D02*
X012401Y002947D01*
X014371Y002947D02*
X014371Y003337D01*
X016341Y003337D02*
X016341Y002947D01*
X018311Y002947D02*
X018311Y003337D01*
X020281Y003337D02*
X020281Y002947D01*
X022251Y002947D02*
X022251Y003337D01*
X024221Y003337D02*
X024221Y002947D01*
X026191Y002947D02*
X026191Y003337D01*
D11*
X009715Y007566D03*
X026644Y022814D03*
X002235Y024979D03*
D12*
X006715Y007118D03*
X006715Y006118D03*
X006715Y005118D03*
X006715Y004118D03*
D13*
X003398Y007030D02*
X003398Y007314D01*
X003682Y007314D01*
X003682Y007030D01*
X003398Y007030D01*
X003398Y007100D02*
X003682Y007100D01*
X003682Y007170D02*
X003398Y007170D01*
X003398Y007240D02*
X003682Y007240D01*
X003682Y007310D02*
X003398Y007310D01*
X002807Y007314D02*
X002807Y007030D01*
X002807Y007314D02*
X003091Y007314D01*
X003091Y007030D01*
X002807Y007030D01*
X002807Y007100D02*
X003091Y007100D01*
X003091Y007170D02*
X002807Y007170D01*
X002807Y007240D02*
X003091Y007240D01*
X003091Y007310D02*
X002807Y007310D01*
D14*
X002474Y006979D02*
X002126Y006979D01*
X002126Y007365D01*
X002474Y007365D01*
X002474Y006979D01*
X002474Y007065D02*
X002126Y007065D01*
X002126Y007151D02*
X002474Y007151D01*
X002474Y007237D02*
X002126Y007237D01*
X002126Y007323D02*
X002474Y007323D01*
X001804Y006979D02*
X001456Y006979D01*
X001456Y007365D01*
X001804Y007365D01*
X001804Y006979D01*
X001804Y007065D02*
X001456Y007065D01*
X001456Y007151D02*
X001804Y007151D01*
X001804Y007237D02*
X001456Y007237D01*
X001456Y007323D02*
X001804Y007323D01*
X015597Y016420D02*
X015945Y016420D01*
X015945Y016034D01*
X015597Y016034D01*
X015597Y016420D01*
X015597Y016120D02*
X015945Y016120D01*
X015945Y016206D02*
X015597Y016206D01*
X015597Y016292D02*
X015945Y016292D01*
X015945Y016378D02*
X015597Y016378D01*
X016267Y016420D02*
X016615Y016420D01*
X016615Y016034D01*
X016267Y016034D01*
X016267Y016420D01*
X016267Y016120D02*
X016615Y016120D01*
X016615Y016206D02*
X016267Y016206D01*
X016267Y016292D02*
X016615Y016292D01*
X016615Y016378D02*
X016267Y016378D01*
X018025Y016420D02*
X018373Y016420D01*
X018373Y016034D01*
X018025Y016034D01*
X018025Y016420D01*
X018025Y016120D02*
X018373Y016120D01*
X018373Y016206D02*
X018025Y016206D01*
X018025Y016292D02*
X018373Y016292D01*
X018373Y016378D02*
X018025Y016378D01*
X018695Y016420D02*
X019043Y016420D01*
X019043Y016034D01*
X018695Y016034D01*
X018695Y016420D01*
X018695Y016120D02*
X019043Y016120D01*
X019043Y016206D02*
X018695Y016206D01*
X018695Y016292D02*
X019043Y016292D01*
X019043Y016378D02*
X018695Y016378D01*
X020466Y016420D02*
X020814Y016420D01*
X020814Y016034D01*
X020466Y016034D01*
X020466Y016420D01*
X020466Y016120D02*
X020814Y016120D01*
X020814Y016206D02*
X020466Y016206D01*
X020466Y016292D02*
X020814Y016292D01*
X020814Y016378D02*
X020466Y016378D01*
X021136Y016420D02*
X021484Y016420D01*
X021484Y016034D01*
X021136Y016034D01*
X021136Y016420D01*
X021136Y016120D02*
X021484Y016120D01*
X021484Y016206D02*
X021136Y016206D01*
X021136Y016292D02*
X021484Y016292D01*
X021484Y016378D02*
X021136Y016378D01*
X022986Y016420D02*
X023334Y016420D01*
X023334Y016034D01*
X022986Y016034D01*
X022986Y016420D01*
X022986Y016120D02*
X023334Y016120D01*
X023334Y016206D02*
X022986Y016206D01*
X022986Y016292D02*
X023334Y016292D01*
X023334Y016378D02*
X022986Y016378D01*
X023655Y016420D02*
X024003Y016420D01*
X024003Y016034D01*
X023655Y016034D01*
X023655Y016420D01*
X023655Y016120D02*
X024003Y016120D01*
X024003Y016206D02*
X023655Y016206D01*
X023655Y016292D02*
X024003Y016292D01*
X024003Y016378D02*
X023655Y016378D01*
X023655Y017207D02*
X024003Y017207D01*
X024003Y016821D01*
X023655Y016821D01*
X023655Y017207D01*
X023655Y016907D02*
X024003Y016907D01*
X024003Y016993D02*
X023655Y016993D01*
X023655Y017079D02*
X024003Y017079D01*
X024003Y017165D02*
X023655Y017165D01*
X024325Y017207D02*
X024673Y017207D01*
X024673Y016821D01*
X024325Y016821D01*
X024325Y017207D01*
X024325Y016907D02*
X024673Y016907D01*
X024673Y016993D02*
X024325Y016993D01*
X024325Y017079D02*
X024673Y017079D01*
X024673Y017165D02*
X024325Y017165D01*
D15*
X024719Y020652D03*
X024719Y021652D03*
X023719Y021652D03*
X023719Y020652D03*
X022719Y020652D03*
X021719Y020652D03*
X021719Y021652D03*
X022719Y021652D03*
X020719Y021652D03*
X020719Y020652D03*
X019719Y020652D03*
X019719Y021652D03*
X018719Y021652D03*
X018719Y020652D03*
X017719Y020652D03*
X016719Y020652D03*
X016719Y021652D03*
X017719Y021652D03*
X017719Y011652D03*
X017719Y010652D03*
X016719Y010652D03*
X016719Y011652D03*
X015719Y011652D03*
X018719Y011652D03*
X018719Y010652D03*
X019719Y010652D03*
X020719Y010652D03*
X020719Y011652D03*
X019719Y011652D03*
X021719Y011652D03*
X021719Y010652D03*
X022719Y010652D03*
X023719Y010652D03*
X023719Y011652D03*
X022719Y011652D03*
X024719Y011652D03*
X024719Y010652D03*
D16*
X015719Y010652D03*
X015719Y020652D03*
D17*
X015719Y021652D03*
D18*
X015316Y018187D03*
X014316Y018187D03*
X012845Y009140D03*
X011845Y009140D03*
X015806Y009140D03*
X016806Y009140D03*
X019817Y009194D03*
X020817Y009194D03*
X021760Y009140D03*
X022760Y009140D03*
X023719Y009140D03*
X024719Y009140D03*
X025663Y009140D03*
X026663Y009140D03*
D19*
X026518Y025134D02*
X026518Y025430D01*
X025140Y025430D02*
X025140Y025134D01*
X023762Y025134D02*
X023762Y025430D01*
X022387Y025430D02*
X022387Y025134D01*
X021009Y025134D02*
X021009Y025430D01*
X019631Y025430D02*
X019631Y025134D01*
X018254Y025134D02*
X018254Y025430D01*
X016876Y025430D02*
X016876Y025134D01*
X015498Y025134D02*
X015498Y025430D01*
X014110Y025430D02*
X014110Y025134D01*
X012732Y025134D02*
X012732Y025430D01*
X011354Y025430D02*
X011354Y025134D01*
X009992Y025134D02*
X009992Y025430D01*
X008614Y025430D02*
X008614Y025134D01*
X007223Y025135D02*
X007223Y025431D01*
X005845Y025431D02*
X005845Y025135D01*
X004467Y025135D02*
X004467Y025431D01*
D20*
X015199Y016403D02*
X015199Y016051D01*
X014467Y016051D01*
X014467Y016403D01*
X015199Y016403D01*
X015199Y016138D02*
X014467Y016138D01*
X014467Y016225D02*
X015199Y016225D01*
X015199Y016312D02*
X014467Y016312D01*
X014467Y016399D02*
X015199Y016399D01*
X015199Y014828D02*
X015199Y014476D01*
X014467Y014476D01*
X014467Y014828D01*
X015199Y014828D01*
X015199Y014563D02*
X014467Y014563D01*
X014467Y014650D02*
X015199Y014650D01*
X015199Y014737D02*
X014467Y014737D01*
X014467Y014824D02*
X015199Y014824D01*
X017660Y014828D02*
X017660Y014476D01*
X016928Y014476D01*
X016928Y014828D01*
X017660Y014828D01*
X017660Y014563D02*
X016928Y014563D01*
X016928Y014650D02*
X017660Y014650D01*
X017660Y014737D02*
X016928Y014737D01*
X016928Y014824D02*
X017660Y014824D01*
X017660Y016051D02*
X017660Y016403D01*
X017660Y016051D02*
X016928Y016051D01*
X016928Y016403D01*
X017660Y016403D01*
X017660Y016138D02*
X016928Y016138D01*
X016928Y016225D02*
X017660Y016225D01*
X017660Y016312D02*
X016928Y016312D01*
X016928Y016399D02*
X017660Y016399D01*
X020120Y016403D02*
X020120Y016051D01*
X019388Y016051D01*
X019388Y016403D01*
X020120Y016403D01*
X020120Y016138D02*
X019388Y016138D01*
X019388Y016225D02*
X020120Y016225D01*
X020120Y016312D02*
X019388Y016312D01*
X019388Y016399D02*
X020120Y016399D01*
X020120Y014828D02*
X020120Y014476D01*
X019388Y014476D01*
X019388Y014828D01*
X020120Y014828D01*
X020120Y014563D02*
X019388Y014563D01*
X019388Y014650D02*
X020120Y014650D01*
X020120Y014737D02*
X019388Y014737D01*
X019388Y014824D02*
X020120Y014824D01*
X022581Y014828D02*
X022581Y014476D01*
X021849Y014476D01*
X021849Y014828D01*
X022581Y014828D01*
X022581Y014563D02*
X021849Y014563D01*
X021849Y014650D02*
X022581Y014650D01*
X022581Y014737D02*
X021849Y014737D01*
X021849Y014824D02*
X022581Y014824D01*
X022581Y016051D02*
X022581Y016403D01*
X022581Y016051D02*
X021849Y016051D01*
X021849Y016403D01*
X022581Y016403D01*
X022581Y016138D02*
X021849Y016138D01*
X021849Y016225D02*
X022581Y016225D01*
X022581Y016312D02*
X021849Y016312D01*
X021849Y016399D02*
X022581Y016399D01*
X025042Y016403D02*
X025042Y016051D01*
X024310Y016051D01*
X024310Y016403D01*
X025042Y016403D01*
X025042Y016138D02*
X024310Y016138D01*
X024310Y016225D02*
X025042Y016225D01*
X025042Y016312D02*
X024310Y016312D01*
X024310Y016399D02*
X025042Y016399D01*
X025042Y014828D02*
X025042Y014476D01*
X024310Y014476D01*
X024310Y014828D01*
X025042Y014828D01*
X025042Y014563D02*
X024310Y014563D01*
X024310Y014650D02*
X025042Y014650D01*
X025042Y014737D02*
X024310Y014737D01*
X024310Y014824D02*
X025042Y014824D01*
D21*
X008160Y014160D03*
D22*
X009098Y010078D02*
X009098Y009226D01*
X007222Y009226D01*
X007222Y010078D01*
X009098Y010078D01*
X009098Y009438D02*
X007222Y009438D01*
X007222Y009650D02*
X009098Y009650D01*
X009098Y009862D02*
X007222Y009862D01*
X007222Y010074D02*
X009098Y010074D01*
X009098Y018242D02*
X009098Y019094D01*
X009098Y018242D02*
X007222Y018242D01*
X007222Y019094D01*
X009098Y019094D01*
X009098Y018454D02*
X007222Y018454D01*
X007222Y018666D02*
X009098Y018666D01*
X009098Y018878D02*
X007222Y018878D01*
X007222Y019090D02*
X009098Y019090D01*
D23*
X009439Y021227D03*
D24*
X008439Y021227D03*
X007439Y021227D03*
X006439Y021227D03*
D25*
X003839Y020777D03*
X012039Y020777D03*
X012039Y011677D03*
X003839Y011677D03*
D26*
X006198Y002778D03*
X008198Y002778D03*
D27*
X001810Y019739D02*
X001510Y019739D01*
X001510Y020739D02*
X001810Y020739D01*
X001810Y021739D02*
X001510Y021739D01*
X001510Y022739D02*
X001810Y022739D01*
D28*
X022339Y017202D02*
X022703Y017202D01*
X022703Y016826D01*
X022339Y016826D01*
X022339Y017202D01*
X022339Y016916D02*
X022703Y016916D01*
X022703Y017006D02*
X022339Y017006D01*
X022339Y017096D02*
X022703Y017096D01*
X022703Y017186D02*
X022339Y017186D01*
X023028Y017202D02*
X023392Y017202D01*
X023392Y016826D01*
X023028Y016826D01*
X023028Y017202D01*
X023028Y016916D02*
X023392Y016916D01*
X023392Y017006D02*
X023028Y017006D01*
X023028Y017096D02*
X023392Y017096D01*
X023392Y017186D02*
X023028Y017186D01*
D29*
X004307Y018565D03*
M02*
