G75*
%MOIN*%
%OFA0B0*%
%FSLAX24Y24*%
%IPPOS*%
%LPD*%
%AMOC8*
5,1,8,0,0,1.08239X$1,22.5*
%
%ADD10C,0.0066*%
%ADD11C,0.0038*%
%ADD12C,0.0069*%
%ADD13C,0.0063*%
%ADD14C,0.0155*%
%ADD15C,0.0101*%
%ADD16C,0.0094*%
%ADD17C,0.0126*%
%ADD18C,0.0057*%
%ADD19C,0.0031*%
D10*
X004987Y010262D02*
X005251Y010262D01*
X004987Y010262D02*
X004987Y010538D01*
X005251Y010538D01*
X005251Y010262D01*
X005251Y010327D02*
X004987Y010327D01*
X004987Y010392D02*
X005251Y010392D01*
X005251Y010457D02*
X004987Y010457D01*
X004987Y010522D02*
X005251Y010522D01*
X005676Y010262D02*
X005940Y010262D01*
X005676Y010262D02*
X005676Y010538D01*
X005940Y010538D01*
X005940Y010262D01*
X005940Y010327D02*
X005676Y010327D01*
X005676Y010392D02*
X005940Y010392D01*
X005940Y010457D02*
X005676Y010457D01*
X005676Y010522D02*
X005940Y010522D01*
X005448Y015233D02*
X005184Y015233D01*
X005184Y015509D01*
X005448Y015509D01*
X005448Y015233D01*
X005448Y015298D02*
X005184Y015298D01*
X005184Y015363D02*
X005448Y015363D01*
X005448Y015428D02*
X005184Y015428D01*
X005184Y015493D02*
X005448Y015493D01*
X004759Y015233D02*
X004495Y015233D01*
X004495Y015509D01*
X004759Y015509D01*
X004759Y015233D01*
X004759Y015298D02*
X004495Y015298D01*
X004495Y015363D02*
X004759Y015363D01*
X004759Y015428D02*
X004495Y015428D01*
X004495Y015493D02*
X004759Y015493D01*
X007343Y018266D02*
X007607Y018266D01*
X007343Y018266D02*
X007343Y018542D01*
X007607Y018542D01*
X007607Y018266D01*
X007607Y018331D02*
X007343Y018331D01*
X007343Y018396D02*
X007607Y018396D01*
X007607Y018461D02*
X007343Y018461D01*
X007343Y018526D02*
X007607Y018526D01*
X008032Y018266D02*
X008296Y018266D01*
X008032Y018266D02*
X008032Y018542D01*
X008296Y018542D01*
X008296Y018266D01*
X008296Y018331D02*
X008032Y018331D01*
X008032Y018396D02*
X008296Y018396D01*
X008296Y018461D02*
X008032Y018461D01*
X008032Y018526D02*
X008296Y018526D01*
X008544Y017672D02*
X008808Y017672D01*
X008544Y017672D02*
X008544Y017948D01*
X008808Y017948D01*
X008808Y017672D01*
X008808Y017737D02*
X008544Y017737D01*
X008544Y017802D02*
X008808Y017802D01*
X008808Y017867D02*
X008544Y017867D01*
X008544Y017932D02*
X008808Y017932D01*
X009233Y017672D02*
X009497Y017672D01*
X009233Y017672D02*
X009233Y017948D01*
X009497Y017948D01*
X009497Y017672D01*
X009497Y017737D02*
X009233Y017737D01*
X009233Y017802D02*
X009497Y017802D01*
X009497Y017867D02*
X009233Y017867D01*
X009233Y017932D02*
X009497Y017932D01*
D11*
X009631Y017154D02*
X009631Y017004D01*
X009205Y017004D01*
X009205Y017154D01*
X009631Y017154D01*
X009631Y017041D02*
X009205Y017041D01*
X009205Y017078D02*
X009631Y017078D01*
X009631Y017115D02*
X009205Y017115D01*
X009205Y017152D02*
X009631Y017152D01*
X009631Y016654D02*
X009631Y016504D01*
X009205Y016504D01*
X009205Y016654D01*
X009631Y016654D01*
X009631Y016541D02*
X009205Y016541D01*
X009205Y016578D02*
X009631Y016578D01*
X009631Y016615D02*
X009205Y016615D01*
X009205Y016652D02*
X009631Y016652D01*
X009631Y016154D02*
X009631Y016004D01*
X009205Y016004D01*
X009205Y016154D01*
X009631Y016154D01*
X009631Y016041D02*
X009205Y016041D01*
X009205Y016078D02*
X009631Y016078D01*
X009631Y016115D02*
X009205Y016115D01*
X009205Y016152D02*
X009631Y016152D01*
X009631Y015654D02*
X009631Y015504D01*
X009205Y015504D01*
X009205Y015654D01*
X009631Y015654D01*
X009631Y015541D02*
X009205Y015541D01*
X009205Y015578D02*
X009631Y015578D01*
X009631Y015615D02*
X009205Y015615D01*
X009205Y015652D02*
X009631Y015652D01*
X007544Y015654D02*
X007544Y015504D01*
X007118Y015504D01*
X007118Y015654D01*
X007544Y015654D01*
X007544Y015541D02*
X007118Y015541D01*
X007118Y015578D02*
X007544Y015578D01*
X007544Y015615D02*
X007118Y015615D01*
X007118Y015652D02*
X007544Y015652D01*
X007544Y016004D02*
X007544Y016154D01*
X007544Y016004D02*
X007118Y016004D01*
X007118Y016154D01*
X007544Y016154D01*
X007544Y016041D02*
X007118Y016041D01*
X007118Y016078D02*
X007544Y016078D01*
X007544Y016115D02*
X007118Y016115D01*
X007118Y016152D02*
X007544Y016152D01*
X007544Y016504D02*
X007544Y016654D01*
X007544Y016504D02*
X007118Y016504D01*
X007118Y016654D01*
X007544Y016654D01*
X007544Y016541D02*
X007118Y016541D01*
X007118Y016578D02*
X007544Y016578D01*
X007544Y016615D02*
X007118Y016615D01*
X007118Y016652D02*
X007544Y016652D01*
X007544Y017004D02*
X007544Y017154D01*
X007544Y017004D02*
X007118Y017004D01*
X007118Y017154D01*
X007544Y017154D01*
X007544Y017041D02*
X007118Y017041D01*
X007118Y017078D02*
X007544Y017078D01*
X007544Y017115D02*
X007118Y017115D01*
X007118Y017152D02*
X007544Y017152D01*
X011535Y006978D02*
X011685Y006978D01*
X011685Y006198D01*
X011535Y006198D01*
X011535Y006978D01*
X011535Y006235D02*
X011685Y006235D01*
X011685Y006272D02*
X011535Y006272D01*
X011535Y006309D02*
X011685Y006309D01*
X011685Y006346D02*
X011535Y006346D01*
X011535Y006383D02*
X011685Y006383D01*
X011685Y006420D02*
X011535Y006420D01*
X011535Y006457D02*
X011685Y006457D01*
X011685Y006494D02*
X011535Y006494D01*
X011535Y006531D02*
X011685Y006531D01*
X011685Y006568D02*
X011535Y006568D01*
X011535Y006605D02*
X011685Y006605D01*
X011685Y006642D02*
X011535Y006642D01*
X011535Y006679D02*
X011685Y006679D01*
X011685Y006716D02*
X011535Y006716D01*
X011535Y006753D02*
X011685Y006753D01*
X011685Y006790D02*
X011535Y006790D01*
X011535Y006827D02*
X011685Y006827D01*
X011685Y006864D02*
X011535Y006864D01*
X011535Y006901D02*
X011685Y006901D01*
X011685Y006938D02*
X011535Y006938D01*
X011535Y006975D02*
X011685Y006975D01*
X012035Y006978D02*
X012185Y006978D01*
X012185Y006198D01*
X012035Y006198D01*
X012035Y006978D01*
X012035Y006235D02*
X012185Y006235D01*
X012185Y006272D02*
X012035Y006272D01*
X012035Y006309D02*
X012185Y006309D01*
X012185Y006346D02*
X012035Y006346D01*
X012035Y006383D02*
X012185Y006383D01*
X012185Y006420D02*
X012035Y006420D01*
X012035Y006457D02*
X012185Y006457D01*
X012185Y006494D02*
X012035Y006494D01*
X012035Y006531D02*
X012185Y006531D01*
X012185Y006568D02*
X012035Y006568D01*
X012035Y006605D02*
X012185Y006605D01*
X012185Y006642D02*
X012035Y006642D01*
X012035Y006679D02*
X012185Y006679D01*
X012185Y006716D02*
X012035Y006716D01*
X012035Y006753D02*
X012185Y006753D01*
X012185Y006790D02*
X012035Y006790D01*
X012035Y006827D02*
X012185Y006827D01*
X012185Y006864D02*
X012035Y006864D01*
X012035Y006901D02*
X012185Y006901D01*
X012185Y006938D02*
X012035Y006938D01*
X012035Y006975D02*
X012185Y006975D01*
X012535Y006978D02*
X012685Y006978D01*
X012685Y006198D01*
X012535Y006198D01*
X012535Y006978D01*
X012535Y006235D02*
X012685Y006235D01*
X012685Y006272D02*
X012535Y006272D01*
X012535Y006309D02*
X012685Y006309D01*
X012685Y006346D02*
X012535Y006346D01*
X012535Y006383D02*
X012685Y006383D01*
X012685Y006420D02*
X012535Y006420D01*
X012535Y006457D02*
X012685Y006457D01*
X012685Y006494D02*
X012535Y006494D01*
X012535Y006531D02*
X012685Y006531D01*
X012685Y006568D02*
X012535Y006568D01*
X012535Y006605D02*
X012685Y006605D01*
X012685Y006642D02*
X012535Y006642D01*
X012535Y006679D02*
X012685Y006679D01*
X012685Y006716D02*
X012535Y006716D01*
X012535Y006753D02*
X012685Y006753D01*
X012685Y006790D02*
X012535Y006790D01*
X012535Y006827D02*
X012685Y006827D01*
X012685Y006864D02*
X012535Y006864D01*
X012535Y006901D02*
X012685Y006901D01*
X012685Y006938D02*
X012535Y006938D01*
X012535Y006975D02*
X012685Y006975D01*
X013035Y006978D02*
X013185Y006978D01*
X013185Y006198D01*
X013035Y006198D01*
X013035Y006978D01*
X013035Y006235D02*
X013185Y006235D01*
X013185Y006272D02*
X013035Y006272D01*
X013035Y006309D02*
X013185Y006309D01*
X013185Y006346D02*
X013035Y006346D01*
X013035Y006383D02*
X013185Y006383D01*
X013185Y006420D02*
X013035Y006420D01*
X013035Y006457D02*
X013185Y006457D01*
X013185Y006494D02*
X013035Y006494D01*
X013035Y006531D02*
X013185Y006531D01*
X013185Y006568D02*
X013035Y006568D01*
X013035Y006605D02*
X013185Y006605D01*
X013185Y006642D02*
X013035Y006642D01*
X013035Y006679D02*
X013185Y006679D01*
X013185Y006716D02*
X013035Y006716D01*
X013035Y006753D02*
X013185Y006753D01*
X013185Y006790D02*
X013035Y006790D01*
X013035Y006827D02*
X013185Y006827D01*
X013185Y006864D02*
X013035Y006864D01*
X013035Y006901D02*
X013185Y006901D01*
X013185Y006938D02*
X013035Y006938D01*
X013035Y006975D02*
X013185Y006975D01*
X013185Y004931D02*
X013035Y004931D01*
X013185Y004931D02*
X013185Y004151D01*
X013035Y004151D01*
X013035Y004931D01*
X013035Y004188D02*
X013185Y004188D01*
X013185Y004225D02*
X013035Y004225D01*
X013035Y004262D02*
X013185Y004262D01*
X013185Y004299D02*
X013035Y004299D01*
X013035Y004336D02*
X013185Y004336D01*
X013185Y004373D02*
X013035Y004373D01*
X013035Y004410D02*
X013185Y004410D01*
X013185Y004447D02*
X013035Y004447D01*
X013035Y004484D02*
X013185Y004484D01*
X013185Y004521D02*
X013035Y004521D01*
X013035Y004558D02*
X013185Y004558D01*
X013185Y004595D02*
X013035Y004595D01*
X013035Y004632D02*
X013185Y004632D01*
X013185Y004669D02*
X013035Y004669D01*
X013035Y004706D02*
X013185Y004706D01*
X013185Y004743D02*
X013035Y004743D01*
X013035Y004780D02*
X013185Y004780D01*
X013185Y004817D02*
X013035Y004817D01*
X013035Y004854D02*
X013185Y004854D01*
X013185Y004891D02*
X013035Y004891D01*
X013035Y004928D02*
X013185Y004928D01*
X012685Y004931D02*
X012535Y004931D01*
X012685Y004931D02*
X012685Y004151D01*
X012535Y004151D01*
X012535Y004931D01*
X012535Y004188D02*
X012685Y004188D01*
X012685Y004225D02*
X012535Y004225D01*
X012535Y004262D02*
X012685Y004262D01*
X012685Y004299D02*
X012535Y004299D01*
X012535Y004336D02*
X012685Y004336D01*
X012685Y004373D02*
X012535Y004373D01*
X012535Y004410D02*
X012685Y004410D01*
X012685Y004447D02*
X012535Y004447D01*
X012535Y004484D02*
X012685Y004484D01*
X012685Y004521D02*
X012535Y004521D01*
X012535Y004558D02*
X012685Y004558D01*
X012685Y004595D02*
X012535Y004595D01*
X012535Y004632D02*
X012685Y004632D01*
X012685Y004669D02*
X012535Y004669D01*
X012535Y004706D02*
X012685Y004706D01*
X012685Y004743D02*
X012535Y004743D01*
X012535Y004780D02*
X012685Y004780D01*
X012685Y004817D02*
X012535Y004817D01*
X012535Y004854D02*
X012685Y004854D01*
X012685Y004891D02*
X012535Y004891D01*
X012535Y004928D02*
X012685Y004928D01*
X012185Y004931D02*
X012035Y004931D01*
X012185Y004931D02*
X012185Y004151D01*
X012035Y004151D01*
X012035Y004931D01*
X012035Y004188D02*
X012185Y004188D01*
X012185Y004225D02*
X012035Y004225D01*
X012035Y004262D02*
X012185Y004262D01*
X012185Y004299D02*
X012035Y004299D01*
X012035Y004336D02*
X012185Y004336D01*
X012185Y004373D02*
X012035Y004373D01*
X012035Y004410D02*
X012185Y004410D01*
X012185Y004447D02*
X012035Y004447D01*
X012035Y004484D02*
X012185Y004484D01*
X012185Y004521D02*
X012035Y004521D01*
X012035Y004558D02*
X012185Y004558D01*
X012185Y004595D02*
X012035Y004595D01*
X012035Y004632D02*
X012185Y004632D01*
X012185Y004669D02*
X012035Y004669D01*
X012035Y004706D02*
X012185Y004706D01*
X012185Y004743D02*
X012035Y004743D01*
X012035Y004780D02*
X012185Y004780D01*
X012185Y004817D02*
X012035Y004817D01*
X012035Y004854D02*
X012185Y004854D01*
X012185Y004891D02*
X012035Y004891D01*
X012035Y004928D02*
X012185Y004928D01*
X011685Y004931D02*
X011535Y004931D01*
X011685Y004931D02*
X011685Y004151D01*
X011535Y004151D01*
X011535Y004931D01*
X011535Y004188D02*
X011685Y004188D01*
X011685Y004225D02*
X011535Y004225D01*
X011535Y004262D02*
X011685Y004262D01*
X011685Y004299D02*
X011535Y004299D01*
X011535Y004336D02*
X011685Y004336D01*
X011685Y004373D02*
X011535Y004373D01*
X011535Y004410D02*
X011685Y004410D01*
X011685Y004447D02*
X011535Y004447D01*
X011535Y004484D02*
X011685Y004484D01*
X011685Y004521D02*
X011535Y004521D01*
X011535Y004558D02*
X011685Y004558D01*
X011685Y004595D02*
X011535Y004595D01*
X011535Y004632D02*
X011685Y004632D01*
X011685Y004669D02*
X011535Y004669D01*
X011535Y004706D02*
X011685Y004706D01*
X011685Y004743D02*
X011535Y004743D01*
X011535Y004780D02*
X011685Y004780D01*
X011685Y004817D02*
X011535Y004817D01*
X011535Y004854D02*
X011685Y004854D01*
X011685Y004891D02*
X011535Y004891D01*
X011535Y004928D02*
X011685Y004928D01*
X015579Y004931D02*
X015729Y004931D01*
X015729Y004151D01*
X015579Y004151D01*
X015579Y004931D01*
X015579Y004188D02*
X015729Y004188D01*
X015729Y004225D02*
X015579Y004225D01*
X015579Y004262D02*
X015729Y004262D01*
X015729Y004299D02*
X015579Y004299D01*
X015579Y004336D02*
X015729Y004336D01*
X015729Y004373D02*
X015579Y004373D01*
X015579Y004410D02*
X015729Y004410D01*
X015729Y004447D02*
X015579Y004447D01*
X015579Y004484D02*
X015729Y004484D01*
X015729Y004521D02*
X015579Y004521D01*
X015579Y004558D02*
X015729Y004558D01*
X015729Y004595D02*
X015579Y004595D01*
X015579Y004632D02*
X015729Y004632D01*
X015729Y004669D02*
X015579Y004669D01*
X015579Y004706D02*
X015729Y004706D01*
X015729Y004743D02*
X015579Y004743D01*
X015579Y004780D02*
X015729Y004780D01*
X015729Y004817D02*
X015579Y004817D01*
X015579Y004854D02*
X015729Y004854D01*
X015729Y004891D02*
X015579Y004891D01*
X015579Y004928D02*
X015729Y004928D01*
X016079Y004931D02*
X016229Y004931D01*
X016229Y004151D01*
X016079Y004151D01*
X016079Y004931D01*
X016079Y004188D02*
X016229Y004188D01*
X016229Y004225D02*
X016079Y004225D01*
X016079Y004262D02*
X016229Y004262D01*
X016229Y004299D02*
X016079Y004299D01*
X016079Y004336D02*
X016229Y004336D01*
X016229Y004373D02*
X016079Y004373D01*
X016079Y004410D02*
X016229Y004410D01*
X016229Y004447D02*
X016079Y004447D01*
X016079Y004484D02*
X016229Y004484D01*
X016229Y004521D02*
X016079Y004521D01*
X016079Y004558D02*
X016229Y004558D01*
X016229Y004595D02*
X016079Y004595D01*
X016079Y004632D02*
X016229Y004632D01*
X016229Y004669D02*
X016079Y004669D01*
X016079Y004706D02*
X016229Y004706D01*
X016229Y004743D02*
X016079Y004743D01*
X016079Y004780D02*
X016229Y004780D01*
X016229Y004817D02*
X016079Y004817D01*
X016079Y004854D02*
X016229Y004854D01*
X016229Y004891D02*
X016079Y004891D01*
X016079Y004928D02*
X016229Y004928D01*
X016579Y004931D02*
X016729Y004931D01*
X016729Y004151D01*
X016579Y004151D01*
X016579Y004931D01*
X016579Y004188D02*
X016729Y004188D01*
X016729Y004225D02*
X016579Y004225D01*
X016579Y004262D02*
X016729Y004262D01*
X016729Y004299D02*
X016579Y004299D01*
X016579Y004336D02*
X016729Y004336D01*
X016729Y004373D02*
X016579Y004373D01*
X016579Y004410D02*
X016729Y004410D01*
X016729Y004447D02*
X016579Y004447D01*
X016579Y004484D02*
X016729Y004484D01*
X016729Y004521D02*
X016579Y004521D01*
X016579Y004558D02*
X016729Y004558D01*
X016729Y004595D02*
X016579Y004595D01*
X016579Y004632D02*
X016729Y004632D01*
X016729Y004669D02*
X016579Y004669D01*
X016579Y004706D02*
X016729Y004706D01*
X016729Y004743D02*
X016579Y004743D01*
X016579Y004780D02*
X016729Y004780D01*
X016729Y004817D02*
X016579Y004817D01*
X016579Y004854D02*
X016729Y004854D01*
X016729Y004891D02*
X016579Y004891D01*
X016579Y004928D02*
X016729Y004928D01*
X017079Y004931D02*
X017229Y004931D01*
X017229Y004151D01*
X017079Y004151D01*
X017079Y004931D01*
X017079Y004188D02*
X017229Y004188D01*
X017229Y004225D02*
X017079Y004225D01*
X017079Y004262D02*
X017229Y004262D01*
X017229Y004299D02*
X017079Y004299D01*
X017079Y004336D02*
X017229Y004336D01*
X017229Y004373D02*
X017079Y004373D01*
X017079Y004410D02*
X017229Y004410D01*
X017229Y004447D02*
X017079Y004447D01*
X017079Y004484D02*
X017229Y004484D01*
X017229Y004521D02*
X017079Y004521D01*
X017079Y004558D02*
X017229Y004558D01*
X017229Y004595D02*
X017079Y004595D01*
X017079Y004632D02*
X017229Y004632D01*
X017229Y004669D02*
X017079Y004669D01*
X017079Y004706D02*
X017229Y004706D01*
X017229Y004743D02*
X017079Y004743D01*
X017079Y004780D02*
X017229Y004780D01*
X017229Y004817D02*
X017079Y004817D01*
X017079Y004854D02*
X017229Y004854D01*
X017229Y004891D02*
X017079Y004891D01*
X017079Y004928D02*
X017229Y004928D01*
X017229Y006978D02*
X017079Y006978D01*
X017229Y006978D02*
X017229Y006198D01*
X017079Y006198D01*
X017079Y006978D01*
X017079Y006235D02*
X017229Y006235D01*
X017229Y006272D02*
X017079Y006272D01*
X017079Y006309D02*
X017229Y006309D01*
X017229Y006346D02*
X017079Y006346D01*
X017079Y006383D02*
X017229Y006383D01*
X017229Y006420D02*
X017079Y006420D01*
X017079Y006457D02*
X017229Y006457D01*
X017229Y006494D02*
X017079Y006494D01*
X017079Y006531D02*
X017229Y006531D01*
X017229Y006568D02*
X017079Y006568D01*
X017079Y006605D02*
X017229Y006605D01*
X017229Y006642D02*
X017079Y006642D01*
X017079Y006679D02*
X017229Y006679D01*
X017229Y006716D02*
X017079Y006716D01*
X017079Y006753D02*
X017229Y006753D01*
X017229Y006790D02*
X017079Y006790D01*
X017079Y006827D02*
X017229Y006827D01*
X017229Y006864D02*
X017079Y006864D01*
X017079Y006901D02*
X017229Y006901D01*
X017229Y006938D02*
X017079Y006938D01*
X017079Y006975D02*
X017229Y006975D01*
X016729Y006978D02*
X016579Y006978D01*
X016729Y006978D02*
X016729Y006198D01*
X016579Y006198D01*
X016579Y006978D01*
X016579Y006235D02*
X016729Y006235D01*
X016729Y006272D02*
X016579Y006272D01*
X016579Y006309D02*
X016729Y006309D01*
X016729Y006346D02*
X016579Y006346D01*
X016579Y006383D02*
X016729Y006383D01*
X016729Y006420D02*
X016579Y006420D01*
X016579Y006457D02*
X016729Y006457D01*
X016729Y006494D02*
X016579Y006494D01*
X016579Y006531D02*
X016729Y006531D01*
X016729Y006568D02*
X016579Y006568D01*
X016579Y006605D02*
X016729Y006605D01*
X016729Y006642D02*
X016579Y006642D01*
X016579Y006679D02*
X016729Y006679D01*
X016729Y006716D02*
X016579Y006716D01*
X016579Y006753D02*
X016729Y006753D01*
X016729Y006790D02*
X016579Y006790D01*
X016579Y006827D02*
X016729Y006827D01*
X016729Y006864D02*
X016579Y006864D01*
X016579Y006901D02*
X016729Y006901D01*
X016729Y006938D02*
X016579Y006938D01*
X016579Y006975D02*
X016729Y006975D01*
X016229Y006978D02*
X016079Y006978D01*
X016229Y006978D02*
X016229Y006198D01*
X016079Y006198D01*
X016079Y006978D01*
X016079Y006235D02*
X016229Y006235D01*
X016229Y006272D02*
X016079Y006272D01*
X016079Y006309D02*
X016229Y006309D01*
X016229Y006346D02*
X016079Y006346D01*
X016079Y006383D02*
X016229Y006383D01*
X016229Y006420D02*
X016079Y006420D01*
X016079Y006457D02*
X016229Y006457D01*
X016229Y006494D02*
X016079Y006494D01*
X016079Y006531D02*
X016229Y006531D01*
X016229Y006568D02*
X016079Y006568D01*
X016079Y006605D02*
X016229Y006605D01*
X016229Y006642D02*
X016079Y006642D01*
X016079Y006679D02*
X016229Y006679D01*
X016229Y006716D02*
X016079Y006716D01*
X016079Y006753D02*
X016229Y006753D01*
X016229Y006790D02*
X016079Y006790D01*
X016079Y006827D02*
X016229Y006827D01*
X016229Y006864D02*
X016079Y006864D01*
X016079Y006901D02*
X016229Y006901D01*
X016229Y006938D02*
X016079Y006938D01*
X016079Y006975D02*
X016229Y006975D01*
X015729Y006978D02*
X015579Y006978D01*
X015729Y006978D02*
X015729Y006198D01*
X015579Y006198D01*
X015579Y006978D01*
X015579Y006235D02*
X015729Y006235D01*
X015729Y006272D02*
X015579Y006272D01*
X015579Y006309D02*
X015729Y006309D01*
X015729Y006346D02*
X015579Y006346D01*
X015579Y006383D02*
X015729Y006383D01*
X015729Y006420D02*
X015579Y006420D01*
X015579Y006457D02*
X015729Y006457D01*
X015729Y006494D02*
X015579Y006494D01*
X015579Y006531D02*
X015729Y006531D01*
X015729Y006568D02*
X015579Y006568D01*
X015579Y006605D02*
X015729Y006605D01*
X015729Y006642D02*
X015579Y006642D01*
X015579Y006679D02*
X015729Y006679D01*
X015729Y006716D02*
X015579Y006716D01*
X015579Y006753D02*
X015729Y006753D01*
X015729Y006790D02*
X015579Y006790D01*
X015579Y006827D02*
X015729Y006827D01*
X015729Y006864D02*
X015579Y006864D01*
X015579Y006901D02*
X015729Y006901D01*
X015729Y006938D02*
X015579Y006938D01*
X015579Y006975D02*
X015729Y006975D01*
D12*
X009948Y014602D02*
X009948Y014880D01*
X010540Y014880D01*
X010540Y014602D01*
X009948Y014602D01*
X009948Y014670D02*
X010540Y014670D01*
X010540Y014738D02*
X009948Y014738D01*
X009948Y014806D02*
X010540Y014806D01*
X010540Y014874D02*
X009948Y014874D01*
X009947Y015941D02*
X009947Y016219D01*
X010539Y016219D01*
X010539Y015941D01*
X009947Y015941D01*
X009947Y016009D02*
X010539Y016009D01*
X010539Y016077D02*
X009947Y016077D01*
X009947Y016145D02*
X010539Y016145D01*
X010539Y016213D02*
X009947Y016213D01*
D13*
X011236Y015557D02*
X011236Y015265D01*
X010984Y015265D01*
X010984Y015557D01*
X011236Y015557D01*
X011236Y015327D02*
X010984Y015327D01*
X010984Y015389D02*
X011236Y015389D01*
X011236Y015451D02*
X010984Y015451D01*
X010984Y015513D02*
X011236Y015513D01*
X011236Y014888D02*
X011236Y014596D01*
X010984Y014596D01*
X010984Y014888D01*
X011236Y014888D01*
X011236Y014658D02*
X010984Y014658D01*
X010984Y014720D02*
X011236Y014720D01*
X011236Y014782D02*
X010984Y014782D01*
X010984Y014844D02*
X011236Y014844D01*
X008280Y017956D02*
X008028Y017956D01*
X008280Y017956D02*
X008280Y017664D01*
X008028Y017664D01*
X008028Y017956D01*
X008028Y017726D02*
X008280Y017726D01*
X008280Y017788D02*
X008028Y017788D01*
X008028Y017850D02*
X008280Y017850D01*
X008280Y017912D02*
X008028Y017912D01*
X007611Y017956D02*
X007359Y017956D01*
X007611Y017956D02*
X007611Y017664D01*
X007359Y017664D01*
X007359Y017956D01*
X007359Y017726D02*
X007611Y017726D01*
X007611Y017788D02*
X007359Y017788D01*
X007359Y017850D02*
X007611Y017850D01*
X007611Y017912D02*
X007359Y017912D01*
X005392Y014843D02*
X005392Y014591D01*
X004904Y014591D01*
X004904Y014843D01*
X005392Y014843D01*
X005392Y014653D02*
X004904Y014653D01*
X004904Y014715D02*
X005392Y014715D01*
X005392Y014777D02*
X004904Y014777D01*
X004904Y014839D02*
X005392Y014839D01*
X005392Y013048D02*
X005392Y012796D01*
X004904Y012796D01*
X004904Y013048D01*
X005392Y013048D01*
X005392Y012858D02*
X004904Y012858D01*
X004904Y012920D02*
X005392Y012920D01*
X005392Y012982D02*
X004904Y012982D01*
X004904Y013044D02*
X005392Y013044D01*
X011460Y008420D02*
X011460Y008168D01*
X011460Y008420D02*
X011752Y008420D01*
X011752Y008168D01*
X011460Y008168D01*
X011460Y008230D02*
X011752Y008230D01*
X011752Y008292D02*
X011460Y008292D01*
X011460Y008354D02*
X011752Y008354D01*
X011752Y008416D02*
X011460Y008416D01*
X011460Y007751D02*
X011460Y007499D01*
X011460Y007751D02*
X011752Y007751D01*
X011752Y007499D01*
X011460Y007499D01*
X011460Y007561D02*
X011752Y007561D01*
X011752Y007623D02*
X011460Y007623D01*
X011460Y007685D02*
X011752Y007685D01*
X011752Y007747D02*
X011460Y007747D01*
X012698Y007751D02*
X012698Y007499D01*
X012698Y007751D02*
X012990Y007751D01*
X012990Y007499D01*
X012698Y007499D01*
X012698Y007561D02*
X012990Y007561D01*
X012990Y007623D02*
X012698Y007623D01*
X012698Y007685D02*
X012990Y007685D01*
X012990Y007747D02*
X012698Y007747D01*
X012698Y008168D02*
X012698Y008420D01*
X012990Y008420D01*
X012990Y008168D01*
X012698Y008168D01*
X012698Y008230D02*
X012990Y008230D01*
X012990Y008292D02*
X012698Y008292D01*
X012698Y008354D02*
X012990Y008354D01*
X012990Y008416D02*
X012698Y008416D01*
X015509Y008420D02*
X015509Y008168D01*
X015509Y008420D02*
X015801Y008420D01*
X015801Y008168D01*
X015509Y008168D01*
X015509Y008230D02*
X015801Y008230D01*
X015801Y008292D02*
X015509Y008292D01*
X015509Y008354D02*
X015801Y008354D01*
X015801Y008416D02*
X015509Y008416D01*
X015509Y007751D02*
X015509Y007499D01*
X015509Y007751D02*
X015801Y007751D01*
X015801Y007499D01*
X015509Y007499D01*
X015509Y007561D02*
X015801Y007561D01*
X015801Y007623D02*
X015509Y007623D01*
X015509Y007685D02*
X015801Y007685D01*
X015801Y007747D02*
X015509Y007747D01*
X016665Y007751D02*
X016665Y007499D01*
X016665Y007751D02*
X016957Y007751D01*
X016957Y007499D01*
X016665Y007499D01*
X016665Y007561D02*
X016957Y007561D01*
X016957Y007623D02*
X016665Y007623D01*
X016665Y007685D02*
X016957Y007685D01*
X016957Y007747D02*
X016665Y007747D01*
X016665Y008168D02*
X016665Y008420D01*
X016957Y008420D01*
X016957Y008168D01*
X016665Y008168D01*
X016665Y008230D02*
X016957Y008230D01*
X016957Y008292D02*
X016665Y008292D01*
X016665Y008354D02*
X016957Y008354D01*
X016957Y008416D02*
X016665Y008416D01*
X019927Y009918D02*
X020179Y009918D01*
X020179Y009626D01*
X019927Y009626D01*
X019927Y009918D01*
X019927Y009688D02*
X020179Y009688D01*
X020179Y009750D02*
X019927Y009750D01*
X019927Y009812D02*
X020179Y009812D01*
X020179Y009874D02*
X019927Y009874D01*
X020596Y009918D02*
X020848Y009918D01*
X020848Y009626D01*
X020596Y009626D01*
X020596Y009918D01*
X020596Y009688D02*
X020848Y009688D01*
X020848Y009750D02*
X020596Y009750D01*
X020596Y009812D02*
X020848Y009812D01*
X020848Y009874D02*
X020596Y009874D01*
X021636Y009901D02*
X021888Y009901D01*
X021888Y009609D01*
X021636Y009609D01*
X021636Y009901D01*
X021636Y009671D02*
X021888Y009671D01*
X021888Y009733D02*
X021636Y009733D01*
X021636Y009795D02*
X021888Y009795D01*
X021888Y009857D02*
X021636Y009857D01*
X022306Y009901D02*
X022558Y009901D01*
X022558Y009609D01*
X022306Y009609D01*
X022306Y009901D01*
X022306Y009671D02*
X022558Y009671D01*
X022558Y009733D02*
X022306Y009733D01*
X022306Y009795D02*
X022558Y009795D01*
X022558Y009857D02*
X022306Y009857D01*
X022927Y009612D02*
X023179Y009612D01*
X022927Y009612D02*
X022927Y009904D01*
X023179Y009904D01*
X023179Y009612D01*
X023179Y009674D02*
X022927Y009674D01*
X022927Y009736D02*
X023179Y009736D01*
X023179Y009798D02*
X022927Y009798D01*
X022927Y009860D02*
X023179Y009860D01*
X023596Y009612D02*
X023848Y009612D01*
X023596Y009612D02*
X023596Y009904D01*
X023848Y009904D01*
X023848Y009612D01*
X023848Y009674D02*
X023596Y009674D01*
X023596Y009736D02*
X023848Y009736D01*
X023848Y009798D02*
X023596Y009798D01*
X023596Y009860D02*
X023848Y009860D01*
X024869Y009608D02*
X025121Y009608D01*
X024869Y009608D02*
X024869Y009900D01*
X025121Y009900D01*
X025121Y009608D01*
X025121Y009670D02*
X024869Y009670D01*
X024869Y009732D02*
X025121Y009732D01*
X025121Y009794D02*
X024869Y009794D01*
X024869Y009856D02*
X025121Y009856D01*
X025538Y009608D02*
X025790Y009608D01*
X025538Y009608D02*
X025538Y009900D01*
X025790Y009900D01*
X025790Y009608D01*
X025790Y009670D02*
X025538Y009670D01*
X025538Y009732D02*
X025790Y009732D01*
X025790Y009794D02*
X025538Y009794D01*
X025538Y009856D02*
X025790Y009856D01*
X015175Y018676D02*
X015175Y018928D01*
X015467Y018928D01*
X015467Y018676D01*
X015175Y018676D01*
X015175Y018738D02*
X015467Y018738D01*
X015467Y018800D02*
X015175Y018800D01*
X015175Y018862D02*
X015467Y018862D01*
X015467Y018924D02*
X015175Y018924D01*
X015175Y019345D02*
X015175Y019597D01*
X015467Y019597D01*
X015467Y019345D01*
X015175Y019345D01*
X015175Y019407D02*
X015467Y019407D01*
X015467Y019469D02*
X015175Y019469D01*
X015175Y019531D02*
X015467Y019531D01*
X015467Y019593D02*
X015175Y019593D01*
X015357Y024242D02*
X015609Y024242D01*
X015357Y024242D02*
X015357Y024534D01*
X015609Y024534D01*
X015609Y024242D01*
X015609Y024304D02*
X015357Y024304D01*
X015357Y024366D02*
X015609Y024366D01*
X015609Y024428D02*
X015357Y024428D01*
X015357Y024490D02*
X015609Y024490D01*
X016026Y024242D02*
X016278Y024242D01*
X016026Y024242D02*
X016026Y024534D01*
X016278Y024534D01*
X016278Y024242D01*
X016278Y024304D02*
X016026Y024304D01*
X016026Y024366D02*
X016278Y024366D01*
X016278Y024428D02*
X016026Y024428D01*
X016026Y024490D02*
X016278Y024490D01*
X019491Y024242D02*
X019743Y024242D01*
X019491Y024242D02*
X019491Y024534D01*
X019743Y024534D01*
X019743Y024242D01*
X019743Y024304D02*
X019491Y024304D01*
X019491Y024366D02*
X019743Y024366D01*
X019743Y024428D02*
X019491Y024428D01*
X019491Y024490D02*
X019743Y024490D01*
X020160Y024242D02*
X020412Y024242D01*
X020160Y024242D02*
X020160Y024534D01*
X020412Y024534D01*
X020412Y024242D01*
X020412Y024304D02*
X020160Y024304D01*
X020160Y024366D02*
X020412Y024366D01*
X020412Y024428D02*
X020160Y024428D01*
X020160Y024490D02*
X020412Y024490D01*
X023625Y024242D02*
X023877Y024242D01*
X023625Y024242D02*
X023625Y024534D01*
X023877Y024534D01*
X023877Y024242D01*
X023877Y024304D02*
X023625Y024304D01*
X023625Y024366D02*
X023877Y024366D01*
X023877Y024428D02*
X023625Y024428D01*
X023625Y024490D02*
X023877Y024490D01*
X024294Y024242D02*
X024546Y024242D01*
X024294Y024242D02*
X024294Y024534D01*
X024546Y024534D01*
X024546Y024242D01*
X024546Y024304D02*
X024294Y024304D01*
X024294Y024366D02*
X024546Y024366D01*
X024546Y024428D02*
X024294Y024428D01*
X024294Y024490D02*
X024546Y024490D01*
X012152Y024242D02*
X011900Y024242D01*
X011900Y024534D01*
X012152Y024534D01*
X012152Y024242D01*
X012152Y024304D02*
X011900Y024304D01*
X011900Y024366D02*
X012152Y024366D01*
X012152Y024428D02*
X011900Y024428D01*
X011900Y024490D02*
X012152Y024490D01*
X011483Y024242D02*
X011231Y024242D01*
X011231Y024534D01*
X011483Y024534D01*
X011483Y024242D01*
X011483Y024304D02*
X011231Y024304D01*
X011231Y024366D02*
X011483Y024366D01*
X011483Y024428D02*
X011231Y024428D01*
X011231Y024490D02*
X011483Y024490D01*
X009841Y022692D02*
X009841Y022440D01*
X009841Y022692D02*
X010133Y022692D01*
X010133Y022440D01*
X009841Y022440D01*
X009841Y022502D02*
X010133Y022502D01*
X010133Y022564D02*
X009841Y022564D01*
X009841Y022626D02*
X010133Y022626D01*
X010133Y022688D02*
X009841Y022688D01*
X009841Y022022D02*
X009841Y021770D01*
X009841Y022022D02*
X010133Y022022D01*
X010133Y021770D01*
X009841Y021770D01*
X009841Y021832D02*
X010133Y021832D01*
X010133Y021894D02*
X009841Y021894D01*
X009841Y021956D02*
X010133Y021956D01*
X010133Y022018D02*
X009841Y022018D01*
X008475Y022022D02*
X008475Y021770D01*
X008475Y022022D02*
X008767Y022022D01*
X008767Y021770D01*
X008475Y021770D01*
X008475Y021832D02*
X008767Y021832D01*
X008767Y021894D02*
X008475Y021894D01*
X008475Y021956D02*
X008767Y021956D01*
X008767Y022018D02*
X008475Y022018D01*
X008475Y022440D02*
X008475Y022692D01*
X008767Y022692D01*
X008767Y022440D01*
X008475Y022440D01*
X008475Y022502D02*
X008767Y022502D01*
X008767Y022564D02*
X008475Y022564D01*
X008475Y022626D02*
X008767Y022626D01*
X008767Y022688D02*
X008475Y022688D01*
X007083Y023247D02*
X007083Y023499D01*
X007375Y023499D01*
X007375Y023247D01*
X007083Y023247D01*
X007083Y023309D02*
X007375Y023309D01*
X007375Y023371D02*
X007083Y023371D01*
X007083Y023433D02*
X007375Y023433D01*
X007375Y023495D02*
X007083Y023495D01*
X007083Y023916D02*
X007083Y024168D01*
X007375Y024168D01*
X007375Y023916D01*
X007083Y023916D01*
X007083Y023978D02*
X007375Y023978D01*
X007375Y024040D02*
X007083Y024040D01*
X007083Y024102D02*
X007375Y024102D01*
X007375Y024164D02*
X007083Y024164D01*
X005706Y024168D02*
X005706Y023916D01*
X005706Y024168D02*
X005998Y024168D01*
X005998Y023916D01*
X005706Y023916D01*
X005706Y023978D02*
X005998Y023978D01*
X005998Y024040D02*
X005706Y024040D01*
X005706Y024102D02*
X005998Y024102D01*
X005998Y024164D02*
X005706Y024164D01*
X005706Y023499D02*
X005706Y023247D01*
X005706Y023499D02*
X005998Y023499D01*
X005998Y023247D01*
X005706Y023247D01*
X005706Y023309D02*
X005998Y023309D01*
X005998Y023371D02*
X005706Y023371D01*
X005706Y023433D02*
X005998Y023433D01*
X005998Y023495D02*
X005706Y023495D01*
X007550Y006911D02*
X007550Y006659D01*
X007550Y006911D02*
X007842Y006911D01*
X007842Y006659D01*
X007550Y006659D01*
X007550Y006721D02*
X007842Y006721D01*
X007842Y006783D02*
X007550Y006783D01*
X007550Y006845D02*
X007842Y006845D01*
X007842Y006907D02*
X007550Y006907D01*
X007550Y006242D02*
X007550Y005990D01*
X007550Y006242D02*
X007842Y006242D01*
X007842Y005990D01*
X007550Y005990D01*
X007550Y006052D02*
X007842Y006052D01*
X007842Y006114D02*
X007550Y006114D01*
X007550Y006176D02*
X007842Y006176D01*
X007842Y006238D02*
X007550Y006238D01*
D14*
X003217Y013033D02*
X003217Y014605D01*
X003217Y013033D02*
X001331Y013033D01*
X001331Y014605D01*
X003217Y014605D01*
X003217Y013187D02*
X001331Y013187D01*
X001331Y013341D02*
X003217Y013341D01*
X003217Y013495D02*
X001331Y013495D01*
X001331Y013649D02*
X003217Y013649D01*
X003217Y013803D02*
X001331Y013803D01*
X001331Y013957D02*
X003217Y013957D01*
X003217Y014111D02*
X001331Y014111D01*
X001331Y014265D02*
X003217Y014265D01*
X003217Y014419D02*
X001331Y014419D01*
X001331Y014573D02*
X003217Y014573D01*
D15*
X004865Y015863D02*
X004865Y016267D01*
X004865Y015863D02*
X004383Y015863D01*
X004383Y016267D01*
X004865Y016267D01*
X004865Y015963D02*
X004383Y015963D01*
X004383Y016063D02*
X004865Y016063D01*
X004865Y016163D02*
X004383Y016163D01*
X004383Y016263D02*
X004865Y016263D01*
X004865Y016965D02*
X004865Y017369D01*
X004865Y016965D02*
X004383Y016965D01*
X004383Y017369D01*
X004865Y017369D01*
X004865Y017065D02*
X004383Y017065D01*
X004383Y017165D02*
X004865Y017165D01*
X004865Y017265D02*
X004383Y017265D01*
X004383Y017365D02*
X004865Y017365D01*
X004523Y010641D02*
X004119Y010641D01*
X004523Y010641D02*
X004523Y010159D01*
X004119Y010159D01*
X004119Y010641D01*
X004119Y010259D02*
X004523Y010259D01*
X004523Y010359D02*
X004119Y010359D01*
X004119Y010459D02*
X004523Y010459D01*
X004523Y010559D02*
X004119Y010559D01*
X003421Y010641D02*
X003017Y010641D01*
X003421Y010641D02*
X003421Y010159D01*
X003017Y010159D01*
X003017Y010641D01*
X003017Y010259D02*
X003421Y010259D01*
X003421Y010359D02*
X003017Y010359D01*
X003017Y010459D02*
X003421Y010459D01*
X003421Y010559D02*
X003017Y010559D01*
X003017Y009696D02*
X003421Y009696D01*
X003421Y009214D01*
X003017Y009214D01*
X003017Y009696D01*
X003017Y009314D02*
X003421Y009314D01*
X003421Y009414D02*
X003017Y009414D01*
X003017Y009514D02*
X003421Y009514D01*
X003421Y009614D02*
X003017Y009614D01*
X004119Y009696D02*
X004523Y009696D01*
X004523Y009214D01*
X004119Y009214D01*
X004119Y009696D01*
X004119Y009314D02*
X004523Y009314D01*
X004523Y009414D02*
X004119Y009414D01*
X004119Y009514D02*
X004523Y009514D01*
X004523Y009614D02*
X004119Y009614D01*
X005657Y004959D02*
X005657Y004555D01*
X005173Y004555D01*
X005173Y004959D01*
X005657Y004959D01*
X005657Y004655D02*
X005173Y004655D01*
X005173Y004755D02*
X005657Y004755D01*
X005657Y004855D02*
X005173Y004855D01*
X005173Y004955D02*
X005657Y004955D01*
X005657Y003840D02*
X005657Y003436D01*
X005173Y003436D01*
X005173Y003840D01*
X005657Y003840D01*
X005657Y003536D02*
X005173Y003536D01*
X005173Y003636D02*
X005657Y003636D01*
X005657Y003736D02*
X005173Y003736D01*
X005173Y003836D02*
X005657Y003836D01*
X019586Y004226D02*
X019990Y004226D01*
X019586Y004226D02*
X019586Y004786D01*
X019990Y004786D01*
X019990Y004226D01*
X019990Y004326D02*
X019586Y004326D01*
X019586Y004426D02*
X019990Y004426D01*
X019990Y004526D02*
X019586Y004526D01*
X019586Y004626D02*
X019990Y004626D01*
X019990Y004726D02*
X019586Y004726D01*
X020586Y004226D02*
X020990Y004226D01*
X020586Y004226D02*
X020586Y004786D01*
X020990Y004786D01*
X020990Y004226D01*
X020990Y004326D02*
X020586Y004326D01*
X020586Y004426D02*
X020990Y004426D01*
X020990Y004526D02*
X020586Y004526D01*
X020586Y004626D02*
X020990Y004626D01*
X020990Y004726D02*
X020586Y004726D01*
X021561Y004226D02*
X021965Y004226D01*
X021561Y004226D02*
X021561Y004786D01*
X021965Y004786D01*
X021965Y004226D01*
X021965Y004326D02*
X021561Y004326D01*
X021561Y004426D02*
X021965Y004426D01*
X021965Y004526D02*
X021561Y004526D01*
X021561Y004626D02*
X021965Y004626D01*
X021965Y004726D02*
X021561Y004726D01*
X022561Y004226D02*
X022965Y004226D01*
X022561Y004226D02*
X022561Y004786D01*
X022965Y004786D01*
X022965Y004226D01*
X022965Y004326D02*
X022561Y004326D01*
X022561Y004426D02*
X022965Y004426D01*
X022965Y004526D02*
X022561Y004526D01*
X022561Y004626D02*
X022965Y004626D01*
X022965Y004726D02*
X022561Y004726D01*
X023517Y004226D02*
X023921Y004226D01*
X023517Y004226D02*
X023517Y004786D01*
X023921Y004786D01*
X023921Y004226D01*
X023921Y004326D02*
X023517Y004326D01*
X023517Y004426D02*
X023921Y004426D01*
X023921Y004526D02*
X023517Y004526D01*
X023517Y004626D02*
X023921Y004626D01*
X023921Y004726D02*
X023517Y004726D01*
X024517Y004226D02*
X024921Y004226D01*
X024517Y004226D02*
X024517Y004786D01*
X024921Y004786D01*
X024921Y004226D01*
X024921Y004326D02*
X024517Y004326D01*
X024517Y004426D02*
X024921Y004426D01*
X024921Y004526D02*
X024517Y004526D01*
X024517Y004626D02*
X024921Y004626D01*
X024921Y004726D02*
X024517Y004726D01*
X025463Y004226D02*
X025867Y004226D01*
X025463Y004226D02*
X025463Y004786D01*
X025867Y004786D01*
X025867Y004226D01*
X025867Y004326D02*
X025463Y004326D01*
X025463Y004426D02*
X025867Y004426D01*
X025867Y004526D02*
X025463Y004526D01*
X025463Y004626D02*
X025867Y004626D01*
X025867Y004726D02*
X025463Y004726D01*
X026463Y004226D02*
X026867Y004226D01*
X026463Y004226D02*
X026463Y004786D01*
X026867Y004786D01*
X026867Y004226D01*
X026867Y004326D02*
X026463Y004326D01*
X026463Y004426D02*
X026867Y004426D01*
X026867Y004526D02*
X026463Y004526D01*
X026463Y004626D02*
X026867Y004626D01*
X026867Y004726D02*
X026463Y004726D01*
X026463Y008542D02*
X026867Y008542D01*
X026867Y007982D01*
X026463Y007982D01*
X026463Y008542D01*
X026463Y008082D02*
X026867Y008082D01*
X026867Y008182D02*
X026463Y008182D01*
X026463Y008282D02*
X026867Y008282D01*
X026867Y008382D02*
X026463Y008382D01*
X026463Y008482D02*
X026867Y008482D01*
X025867Y008542D02*
X025463Y008542D01*
X025867Y008542D02*
X025867Y007982D01*
X025463Y007982D01*
X025463Y008542D01*
X025463Y008082D02*
X025867Y008082D01*
X025867Y008182D02*
X025463Y008182D01*
X025463Y008282D02*
X025867Y008282D01*
X025867Y008382D02*
X025463Y008382D01*
X025463Y008482D02*
X025867Y008482D01*
X024921Y008542D02*
X024517Y008542D01*
X024921Y008542D02*
X024921Y007982D01*
X024517Y007982D01*
X024517Y008542D01*
X024517Y008082D02*
X024921Y008082D01*
X024921Y008182D02*
X024517Y008182D01*
X024517Y008282D02*
X024921Y008282D01*
X024921Y008382D02*
X024517Y008382D01*
X024517Y008482D02*
X024921Y008482D01*
X023921Y008542D02*
X023517Y008542D01*
X023921Y008542D02*
X023921Y007982D01*
X023517Y007982D01*
X023517Y008542D01*
X023517Y008082D02*
X023921Y008082D01*
X023921Y008182D02*
X023517Y008182D01*
X023517Y008282D02*
X023921Y008282D01*
X023921Y008382D02*
X023517Y008382D01*
X023517Y008482D02*
X023921Y008482D01*
X022965Y008542D02*
X022561Y008542D01*
X022965Y008542D02*
X022965Y007982D01*
X022561Y007982D01*
X022561Y008542D01*
X022561Y008082D02*
X022965Y008082D01*
X022965Y008182D02*
X022561Y008182D01*
X022561Y008282D02*
X022965Y008282D01*
X022965Y008382D02*
X022561Y008382D01*
X022561Y008482D02*
X022965Y008482D01*
X021965Y008542D02*
X021561Y008542D01*
X021965Y008542D02*
X021965Y007982D01*
X021561Y007982D01*
X021561Y008542D01*
X021561Y008082D02*
X021965Y008082D01*
X021965Y008182D02*
X021561Y008182D01*
X021561Y008282D02*
X021965Y008282D01*
X021965Y008382D02*
X021561Y008382D01*
X021561Y008482D02*
X021965Y008482D01*
X020990Y008542D02*
X020586Y008542D01*
X020990Y008542D02*
X020990Y007982D01*
X020586Y007982D01*
X020586Y008542D01*
X020586Y008082D02*
X020990Y008082D01*
X020990Y008182D02*
X020586Y008182D01*
X020586Y008282D02*
X020990Y008282D01*
X020990Y008382D02*
X020586Y008382D01*
X020586Y008482D02*
X020990Y008482D01*
X019990Y008542D02*
X019586Y008542D01*
X019990Y008542D02*
X019990Y007982D01*
X019586Y007982D01*
X019586Y008542D01*
X019586Y008082D02*
X019990Y008082D01*
X019990Y008182D02*
X019586Y008182D01*
X019586Y008282D02*
X019990Y008282D01*
X019990Y008382D02*
X019586Y008382D01*
X019586Y008482D02*
X019990Y008482D01*
D16*
X002503Y004524D02*
X002125Y004524D01*
X002125Y004980D01*
X002503Y004980D01*
X002503Y004524D01*
X002503Y004617D02*
X002125Y004617D01*
X002125Y004710D02*
X002503Y004710D01*
X002503Y004803D02*
X002125Y004803D01*
X002125Y004896D02*
X002503Y004896D01*
X004132Y004524D02*
X004510Y004524D01*
X004132Y004524D02*
X004132Y004980D01*
X004510Y004980D01*
X004510Y004524D01*
X004510Y004617D02*
X004132Y004617D01*
X004132Y004710D02*
X004510Y004710D01*
X004510Y004803D02*
X004132Y004803D01*
X004132Y004896D02*
X004510Y004896D01*
X004510Y008523D02*
X004132Y008523D01*
X004510Y008523D02*
X004510Y008067D01*
X004132Y008067D01*
X004132Y008523D01*
X004132Y008160D02*
X004510Y008160D01*
X004510Y008253D02*
X004132Y008253D01*
X004132Y008346D02*
X004510Y008346D01*
X004510Y008439D02*
X004132Y008439D01*
X002503Y008523D02*
X002125Y008523D01*
X002503Y008523D02*
X002503Y008067D01*
X002125Y008067D01*
X002125Y008523D01*
X002125Y008160D02*
X002503Y008160D01*
X002503Y008253D02*
X002125Y008253D01*
X002125Y008346D02*
X002503Y008346D01*
X002503Y008439D02*
X002125Y008439D01*
X002102Y015795D02*
X001724Y015795D01*
X001724Y016369D01*
X002102Y016369D01*
X002102Y015795D01*
X002102Y015888D02*
X001724Y015888D01*
X001724Y015981D02*
X002102Y015981D01*
X002102Y016074D02*
X001724Y016074D01*
X001724Y016167D02*
X002102Y016167D01*
X002102Y016260D02*
X001724Y016260D01*
X001724Y016353D02*
X002102Y016353D01*
X002629Y015795D02*
X003007Y015795D01*
X002629Y015795D02*
X002629Y016369D01*
X003007Y016369D01*
X003007Y015795D01*
X003007Y015888D02*
X002629Y015888D01*
X002629Y015981D02*
X003007Y015981D01*
X003007Y016074D02*
X002629Y016074D01*
X002629Y016167D02*
X003007Y016167D01*
X003007Y016260D02*
X002629Y016260D01*
X002629Y016353D02*
X003007Y016353D01*
X003535Y015795D02*
X003913Y015795D01*
X003535Y015795D02*
X003535Y016369D01*
X003913Y016369D01*
X003913Y015795D01*
X003913Y015888D02*
X003535Y015888D01*
X003535Y015981D02*
X003913Y015981D01*
X003913Y016074D02*
X003535Y016074D01*
X003535Y016167D02*
X003913Y016167D01*
X003913Y016260D02*
X003535Y016260D01*
X003535Y016353D02*
X003913Y016353D01*
D17*
X003424Y018311D02*
X002212Y018311D01*
X002212Y018815D01*
X003424Y018815D01*
X003424Y018311D01*
X003424Y018436D02*
X002212Y018436D01*
X002212Y018561D02*
X003424Y018561D01*
X003424Y018686D02*
X002212Y018686D01*
X002212Y018811D02*
X003424Y018811D01*
D18*
X008437Y022952D02*
X008437Y023182D01*
X008789Y023182D01*
X008789Y022952D01*
X008437Y022952D01*
X008437Y023008D02*
X008789Y023008D01*
X008789Y023064D02*
X008437Y023064D01*
X008437Y023120D02*
X008789Y023120D01*
X008789Y023176D02*
X008437Y023176D01*
X008789Y024232D02*
X008789Y024462D01*
X008789Y024232D02*
X008437Y024232D01*
X008437Y024462D01*
X008789Y024462D01*
X008789Y024288D02*
X008437Y024288D01*
X008437Y024344D02*
X008789Y024344D01*
X008789Y024400D02*
X008437Y024400D01*
X008437Y024456D02*
X008789Y024456D01*
X010165Y024462D02*
X010165Y024232D01*
X009813Y024232D01*
X009813Y024462D01*
X010165Y024462D01*
X010165Y024288D02*
X009813Y024288D01*
X009813Y024344D02*
X010165Y024344D01*
X010165Y024400D02*
X009813Y024400D01*
X009813Y024456D02*
X010165Y024456D01*
X009813Y023182D02*
X009813Y022952D01*
X009813Y023182D02*
X010165Y023182D01*
X010165Y022952D01*
X009813Y022952D01*
X009813Y023008D02*
X010165Y023008D01*
X010165Y023064D02*
X009813Y023064D01*
X009813Y023120D02*
X010165Y023120D01*
X010165Y023176D02*
X009813Y023176D01*
D19*
X007166Y023035D02*
X007166Y022829D01*
X007166Y023035D02*
X007292Y023035D01*
X007292Y022829D01*
X007166Y022829D01*
X007166Y022859D02*
X007292Y022859D01*
X007292Y022889D02*
X007166Y022889D01*
X007166Y022919D02*
X007292Y022919D01*
X007292Y022949D02*
X007166Y022949D01*
X007166Y022979D02*
X007292Y022979D01*
X007292Y023009D02*
X007166Y023009D01*
X007166Y022523D02*
X007166Y022317D01*
X007166Y022523D02*
X007292Y022523D01*
X007292Y022317D01*
X007166Y022317D01*
X007166Y022347D02*
X007292Y022347D01*
X007292Y022377D02*
X007166Y022377D01*
X007166Y022407D02*
X007292Y022407D01*
X007292Y022437D02*
X007166Y022437D01*
X007166Y022467D02*
X007292Y022467D01*
X007292Y022497D02*
X007166Y022497D01*
X005789Y022523D02*
X005789Y022317D01*
X005789Y022523D02*
X005915Y022523D01*
X005915Y022317D01*
X005789Y022317D01*
X005789Y022347D02*
X005915Y022347D01*
X005915Y022377D02*
X005789Y022377D01*
X005789Y022407D02*
X005915Y022407D01*
X005915Y022437D02*
X005789Y022437D01*
X005789Y022467D02*
X005915Y022467D01*
X005915Y022497D02*
X005789Y022497D01*
X005789Y022829D02*
X005789Y023035D01*
X005915Y023035D01*
X005915Y022829D01*
X005789Y022829D01*
X005789Y022859D02*
X005915Y022859D01*
X005915Y022889D02*
X005789Y022889D01*
X005789Y022919D02*
X005915Y022919D01*
X005915Y022949D02*
X005789Y022949D01*
X005789Y022979D02*
X005915Y022979D01*
X005915Y023009D02*
X005789Y023009D01*
X012442Y024325D02*
X012648Y024325D01*
X012442Y024325D02*
X012442Y024451D01*
X012648Y024451D01*
X012648Y024325D01*
X012648Y024355D02*
X012442Y024355D01*
X012442Y024385D02*
X012648Y024385D01*
X012648Y024415D02*
X012442Y024415D01*
X012442Y024445D02*
X012648Y024445D01*
X012954Y024325D02*
X013160Y024325D01*
X012954Y024325D02*
X012954Y024451D01*
X013160Y024451D01*
X013160Y024325D01*
X013160Y024355D02*
X012954Y024355D01*
X012954Y024385D02*
X013160Y024385D01*
X013160Y024415D02*
X012954Y024415D01*
X012954Y024445D02*
X013160Y024445D01*
X016586Y024325D02*
X016792Y024325D01*
X016586Y024325D02*
X016586Y024451D01*
X016792Y024451D01*
X016792Y024325D01*
X016792Y024355D02*
X016586Y024355D01*
X016586Y024385D02*
X016792Y024385D01*
X016792Y024415D02*
X016586Y024415D01*
X016586Y024445D02*
X016792Y024445D01*
X017097Y024325D02*
X017303Y024325D01*
X017097Y024325D02*
X017097Y024451D01*
X017303Y024451D01*
X017303Y024325D01*
X017303Y024355D02*
X017097Y024355D01*
X017097Y024385D02*
X017303Y024385D01*
X017303Y024415D02*
X017097Y024415D01*
X017097Y024445D02*
X017303Y024445D01*
X020719Y024325D02*
X020925Y024325D01*
X020719Y024325D02*
X020719Y024451D01*
X020925Y024451D01*
X020925Y024325D01*
X020925Y024355D02*
X020719Y024355D01*
X020719Y024385D02*
X020925Y024385D01*
X020925Y024415D02*
X020719Y024415D01*
X020719Y024445D02*
X020925Y024445D01*
X021231Y024325D02*
X021437Y024325D01*
X021231Y024325D02*
X021231Y024451D01*
X021437Y024451D01*
X021437Y024325D01*
X021437Y024355D02*
X021231Y024355D01*
X021231Y024385D02*
X021437Y024385D01*
X021437Y024415D02*
X021231Y024415D01*
X021231Y024445D02*
X021437Y024445D01*
X024848Y024325D02*
X025054Y024325D01*
X024848Y024325D02*
X024848Y024451D01*
X025054Y024451D01*
X025054Y024325D01*
X025054Y024355D02*
X024848Y024355D01*
X024848Y024385D02*
X025054Y024385D01*
X025054Y024415D02*
X024848Y024415D01*
X024848Y024445D02*
X025054Y024445D01*
X025360Y024325D02*
X025566Y024325D01*
X025360Y024325D02*
X025360Y024451D01*
X025566Y024451D01*
X025566Y024325D01*
X025566Y024355D02*
X025360Y024355D01*
X025360Y024385D02*
X025566Y024385D01*
X025566Y024415D02*
X025360Y024415D01*
X025360Y024445D02*
X025566Y024445D01*
M02*
