G75*
%MOIN*%
%OFA0B0*%
%FSLAX24Y24*%
%IPPOS*%
%LPD*%
%AMOC8*
5,1,8,0,0,1.08239X$1,22.5*
%
%ADD10C,0.0050*%
%ADD11C,0.0063*%
%ADD12C,0.0064*%
%ADD13C,0.0157*%
%ADD14C,0.0066*%
D10*
X002848Y007071D02*
X002848Y007273D01*
X003050Y007273D01*
X003050Y007071D01*
X002848Y007071D01*
X002848Y007120D02*
X003050Y007120D01*
X003050Y007169D02*
X002848Y007169D01*
X002848Y007218D02*
X003050Y007218D01*
X003050Y007267D02*
X002848Y007267D01*
X003439Y007273D02*
X003439Y007071D01*
X003439Y007273D02*
X003641Y007273D01*
X003641Y007071D01*
X003439Y007071D01*
X003439Y007120D02*
X003641Y007120D01*
X003641Y007169D02*
X003439Y007169D01*
X003439Y007218D02*
X003641Y007218D01*
X003641Y007267D02*
X003439Y007267D01*
D11*
X001756Y007026D02*
X001504Y007026D01*
X001504Y007318D01*
X001756Y007318D01*
X001756Y007026D01*
X001756Y007088D02*
X001504Y007088D01*
X001504Y007150D02*
X001756Y007150D01*
X001756Y007212D02*
X001504Y007212D01*
X001504Y007274D02*
X001756Y007274D01*
X002174Y007026D02*
X002426Y007026D01*
X002174Y007026D02*
X002174Y007318D01*
X002426Y007318D01*
X002426Y007026D01*
X002426Y007088D02*
X002174Y007088D01*
X002174Y007150D02*
X002426Y007150D01*
X002426Y007212D02*
X002174Y007212D01*
X002174Y007274D02*
X002426Y007274D01*
X015645Y016373D02*
X015897Y016373D01*
X015897Y016081D01*
X015645Y016081D01*
X015645Y016373D01*
X015645Y016143D02*
X015897Y016143D01*
X015897Y016205D02*
X015645Y016205D01*
X015645Y016267D02*
X015897Y016267D01*
X015897Y016329D02*
X015645Y016329D01*
X016315Y016373D02*
X016567Y016373D01*
X016567Y016081D01*
X016315Y016081D01*
X016315Y016373D01*
X016315Y016143D02*
X016567Y016143D01*
X016567Y016205D02*
X016315Y016205D01*
X016315Y016267D02*
X016567Y016267D01*
X016567Y016329D02*
X016315Y016329D01*
X018073Y016373D02*
X018325Y016373D01*
X018325Y016081D01*
X018073Y016081D01*
X018073Y016373D01*
X018073Y016143D02*
X018325Y016143D01*
X018325Y016205D02*
X018073Y016205D01*
X018073Y016267D02*
X018325Y016267D01*
X018325Y016329D02*
X018073Y016329D01*
X018743Y016373D02*
X018995Y016373D01*
X018995Y016081D01*
X018743Y016081D01*
X018743Y016373D01*
X018743Y016143D02*
X018995Y016143D01*
X018995Y016205D02*
X018743Y016205D01*
X018743Y016267D02*
X018995Y016267D01*
X018995Y016329D02*
X018743Y016329D01*
X020514Y016373D02*
X020766Y016373D01*
X020766Y016081D01*
X020514Y016081D01*
X020514Y016373D01*
X020514Y016143D02*
X020766Y016143D01*
X020766Y016205D02*
X020514Y016205D01*
X020514Y016267D02*
X020766Y016267D01*
X020766Y016329D02*
X020514Y016329D01*
X021184Y016373D02*
X021436Y016373D01*
X021436Y016081D01*
X021184Y016081D01*
X021184Y016373D01*
X021184Y016143D02*
X021436Y016143D01*
X021436Y016205D02*
X021184Y016205D01*
X021184Y016267D02*
X021436Y016267D01*
X021436Y016329D02*
X021184Y016329D01*
X023034Y016373D02*
X023286Y016373D01*
X023286Y016081D01*
X023034Y016081D01*
X023034Y016373D01*
X023034Y016143D02*
X023286Y016143D01*
X023286Y016205D02*
X023034Y016205D01*
X023034Y016267D02*
X023286Y016267D01*
X023286Y016329D02*
X023034Y016329D01*
X023703Y016373D02*
X023955Y016373D01*
X023955Y016081D01*
X023703Y016081D01*
X023703Y016373D01*
X023703Y016143D02*
X023955Y016143D01*
X023955Y016205D02*
X023703Y016205D01*
X023703Y016267D02*
X023955Y016267D01*
X023955Y016329D02*
X023703Y016329D01*
X023703Y017160D02*
X023955Y017160D01*
X023955Y016868D01*
X023703Y016868D01*
X023703Y017160D01*
X023703Y016930D02*
X023955Y016930D01*
X023955Y016992D02*
X023703Y016992D01*
X023703Y017054D02*
X023955Y017054D01*
X023955Y017116D02*
X023703Y017116D01*
X024373Y017160D02*
X024625Y017160D01*
X024625Y016868D01*
X024373Y016868D01*
X024373Y017160D01*
X024373Y016930D02*
X024625Y016930D01*
X024625Y016992D02*
X024373Y016992D01*
X024373Y017054D02*
X024625Y017054D01*
X024625Y017116D02*
X024373Y017116D01*
D12*
X024994Y016355D02*
X024994Y016099D01*
X024358Y016099D01*
X024358Y016355D01*
X024994Y016355D01*
X024994Y016162D02*
X024358Y016162D01*
X024358Y016225D02*
X024994Y016225D01*
X024994Y016288D02*
X024358Y016288D01*
X024358Y016351D02*
X024994Y016351D01*
X024994Y014780D02*
X024994Y014524D01*
X024358Y014524D01*
X024358Y014780D01*
X024994Y014780D01*
X024994Y014587D02*
X024358Y014587D01*
X024358Y014650D02*
X024994Y014650D01*
X024994Y014713D02*
X024358Y014713D01*
X024358Y014776D02*
X024994Y014776D01*
X022533Y014780D02*
X022533Y014524D01*
X021897Y014524D01*
X021897Y014780D01*
X022533Y014780D01*
X022533Y014587D02*
X021897Y014587D01*
X021897Y014650D02*
X022533Y014650D01*
X022533Y014713D02*
X021897Y014713D01*
X021897Y014776D02*
X022533Y014776D01*
X022533Y016099D02*
X022533Y016355D01*
X022533Y016099D02*
X021897Y016099D01*
X021897Y016355D01*
X022533Y016355D01*
X022533Y016162D02*
X021897Y016162D01*
X021897Y016225D02*
X022533Y016225D01*
X022533Y016288D02*
X021897Y016288D01*
X021897Y016351D02*
X022533Y016351D01*
X020072Y016355D02*
X020072Y016099D01*
X019436Y016099D01*
X019436Y016355D01*
X020072Y016355D01*
X020072Y016162D02*
X019436Y016162D01*
X019436Y016225D02*
X020072Y016225D01*
X020072Y016288D02*
X019436Y016288D01*
X019436Y016351D02*
X020072Y016351D01*
X020072Y014780D02*
X020072Y014524D01*
X019436Y014524D01*
X019436Y014780D01*
X020072Y014780D01*
X020072Y014587D02*
X019436Y014587D01*
X019436Y014650D02*
X020072Y014650D01*
X020072Y014713D02*
X019436Y014713D01*
X019436Y014776D02*
X020072Y014776D01*
X017612Y014780D02*
X017612Y014524D01*
X016976Y014524D01*
X016976Y014780D01*
X017612Y014780D01*
X017612Y014587D02*
X016976Y014587D01*
X016976Y014650D02*
X017612Y014650D01*
X017612Y014713D02*
X016976Y014713D01*
X016976Y014776D02*
X017612Y014776D01*
X017612Y016099D02*
X017612Y016355D01*
X017612Y016099D02*
X016976Y016099D01*
X016976Y016355D01*
X017612Y016355D01*
X017612Y016162D02*
X016976Y016162D01*
X016976Y016225D02*
X017612Y016225D01*
X017612Y016288D02*
X016976Y016288D01*
X016976Y016351D02*
X017612Y016351D01*
X015151Y016355D02*
X015151Y016099D01*
X014515Y016099D01*
X014515Y016355D01*
X015151Y016355D01*
X015151Y016162D02*
X014515Y016162D01*
X014515Y016225D02*
X015151Y016225D01*
X015151Y016288D02*
X014515Y016288D01*
X014515Y016351D02*
X015151Y016351D01*
X015151Y014780D02*
X015151Y014524D01*
X014515Y014524D01*
X014515Y014780D01*
X015151Y014780D01*
X015151Y014587D02*
X014515Y014587D01*
X014515Y014650D02*
X015151Y014650D01*
X015151Y014713D02*
X014515Y014713D01*
X014515Y014776D02*
X015151Y014776D01*
D13*
X008987Y018353D02*
X008987Y018983D01*
X008987Y018353D02*
X007333Y018353D01*
X007333Y018983D01*
X008987Y018983D01*
X008987Y018509D02*
X007333Y018509D01*
X007333Y018665D02*
X008987Y018665D01*
X008987Y018821D02*
X007333Y018821D01*
X007333Y018977D02*
X008987Y018977D01*
X008987Y009967D02*
X008987Y009337D01*
X007333Y009337D01*
X007333Y009967D01*
X008987Y009967D01*
X008987Y009493D02*
X007333Y009493D01*
X007333Y009649D02*
X008987Y009649D01*
X008987Y009805D02*
X007333Y009805D01*
X007333Y009961D02*
X008987Y009961D01*
D14*
X022389Y017152D02*
X022653Y017152D01*
X022653Y016876D01*
X022389Y016876D01*
X022389Y017152D01*
X022389Y016941D02*
X022653Y016941D01*
X022653Y017006D02*
X022389Y017006D01*
X022389Y017071D02*
X022653Y017071D01*
X022653Y017136D02*
X022389Y017136D01*
X023078Y017152D02*
X023342Y017152D01*
X023342Y016876D01*
X023078Y016876D01*
X023078Y017152D01*
X023078Y016941D02*
X023342Y016941D01*
X023342Y017006D02*
X023078Y017006D01*
X023078Y017071D02*
X023342Y017071D01*
X023342Y017136D02*
X023078Y017136D01*
M02*
